%TF.GenerationSoftware,KiCad,Pcbnew,10.0.5*%
%TF.CreationDate,2026-09-06T19:49:15+07:00*%
%TF.ProjectId,Nailem,4e61696c-656d-42e6-9b69-6361645f7063,rev?*%
%TF.SameCoordinates,Original*%
%TF.FileFunction,Drillmap*%
%TF.FilePolarity,Positive*%
%FSLAX45Y45*%
G04 Gerber Fmt 4.5, Leading zero omitted, Abs format (unit mm)*
G04 Created by KiCad (PCBNEW 10.0.5) date 2026-09-06 19:49:15*
%MOMM*%
%LPD*%
G01*
G04 APERTURE LIST*
%ADD10C,0.050000*%
%ADD11C,0.120000*%
%ADD12C,0.200000*%
%ADD13C,0.100000*%
G04 APERTURE END LIST*
D10*
X26300000Y-14500000D02*
G75*
G02*
X26050000Y-14750000I-250000J0D01*
G01*
X26050000Y-5250000D02*
G75*
G02*
X26300000Y-5500000I0J-250000D01*
G01*
X17050000Y-14750000D02*
G75*
G02*
X16800000Y-14500000I0J250000D01*
G01*
X16800000Y-5500000D02*
G75*
G02*
X17050000Y-5250000I250000J0D01*
G01*
X26300000Y-5500000D02*
X26300000Y-14500000D01*
X26050000Y-14750000D02*
X17050000Y-14750000D01*
X16800000Y-14500000D02*
X16800000Y-5500000D01*
X17050000Y-5250000D02*
X26050000Y-5250000D01*
D11*
X18470000Y-14400000D02*
X18470000Y-14470035D01*
X18470000Y-14400000D02*
X18470000Y-14329965D01*
X18300000Y-14550000D02*
X18390035Y-14550000D01*
X18300000Y-14550000D02*
X18209965Y-14550000D01*
X18300000Y-14250000D02*
X18390035Y-14250000D01*
X18300000Y-14250000D02*
X18209965Y-14250000D01*
X18130000Y-14400000D02*
X18130000Y-14470035D01*
X18130000Y-14400000D02*
X18130000Y-14329965D01*
X18474393Y-14485665D02*
G75*
G02*
X18470000Y-14470035I25606J15630D01*
G01*
X18474393Y-14485665D02*
G75*
G02*
X18405666Y-14554393I-42678J-26050D01*
G01*
X18470000Y-14329965D02*
G75*
G02*
X18474393Y-14314334I29999J0D01*
G01*
X18405666Y-14245607D02*
G75*
G02*
X18474393Y-14314334I26050J-42678D01*
G01*
X18405666Y-14245607D02*
G75*
G02*
X18390035Y-14250000I-15630J25606D01*
G01*
X18390035Y-14550000D02*
G75*
G02*
X18405666Y-14554393I0J-29999D01*
G01*
X18209965Y-14250000D02*
G75*
G02*
X18194334Y-14245607I0J30002D01*
G01*
X18194335Y-14554393D02*
G75*
G02*
X18209965Y-14550002I15626J-25607D01*
G01*
X18194335Y-14554393D02*
G75*
G02*
X18125607Y-14485665I-26051J42677D01*
G01*
X18130000Y-14470035D02*
G75*
G02*
X18125607Y-14485665I-29968J-9D01*
G01*
X18125607Y-14314334D02*
G75*
G02*
X18194335Y-14245607I42677J26051D01*
G01*
X18125607Y-14314334D02*
G75*
G02*
X18129998Y-14329965I-25607J-15626D01*
G01*
X19270000Y-14400000D02*
X19270000Y-14470035D01*
X19270000Y-14400000D02*
X19270000Y-14329965D01*
X19100000Y-14550000D02*
X19190035Y-14550000D01*
X19100000Y-14550000D02*
X19009965Y-14550000D01*
X19100000Y-14250000D02*
X19190035Y-14250000D01*
X19100000Y-14250000D02*
X19009965Y-14250000D01*
X18930000Y-14400000D02*
X18930000Y-14470035D01*
X18930000Y-14400000D02*
X18930000Y-14329965D01*
X19274393Y-14485665D02*
G75*
G02*
X19270000Y-14470035I25606J15630D01*
G01*
X19274393Y-14485665D02*
G75*
G02*
X19205666Y-14554393I-42678J-26050D01*
G01*
X19270000Y-14329965D02*
G75*
G02*
X19274393Y-14314334I29999J0D01*
G01*
X19205666Y-14245607D02*
G75*
G02*
X19274393Y-14314334I26050J-42678D01*
G01*
X19205666Y-14245607D02*
G75*
G02*
X19190035Y-14250000I-15630J25606D01*
G01*
X19190035Y-14550000D02*
G75*
G02*
X19205666Y-14554393I0J-29999D01*
G01*
X19009965Y-14250000D02*
G75*
G02*
X18994334Y-14245607I0J30002D01*
G01*
X18994335Y-14554393D02*
G75*
G02*
X19009965Y-14550002I15626J-25607D01*
G01*
X18994335Y-14554393D02*
G75*
G02*
X18925607Y-14485665I-26051J42677D01*
G01*
X18930000Y-14470035D02*
G75*
G02*
X18925607Y-14485665I-29968J-9D01*
G01*
X18925607Y-14314334D02*
G75*
G02*
X18994335Y-14245607I42677J26051D01*
G01*
X18925607Y-14314334D02*
G75*
G02*
X18929998Y-14329965I-25607J-15626D01*
G01*
D12*
D13*
X25602500Y-11196500D02*
X25667500Y-11261500D01*
X25667500Y-11196500D02*
X25602500Y-11261500D01*
X25602500Y-11774500D02*
X25667500Y-11839500D01*
X25667500Y-11774500D02*
X25602500Y-11839500D01*
D12*
X17058277Y-15063984D02*
X17058277Y-14863984D01*
X17058277Y-14863984D02*
X17105896Y-14863984D01*
X17105896Y-14863984D02*
X17134467Y-14873508D01*
X17134467Y-14873508D02*
X17153515Y-14892555D01*
X17153515Y-14892555D02*
X17163039Y-14911603D01*
X17163039Y-14911603D02*
X17172563Y-14949698D01*
X17172563Y-14949698D02*
X17172563Y-14978269D01*
X17172563Y-14978269D02*
X17163039Y-15016365D01*
X17163039Y-15016365D02*
X17153515Y-15035412D01*
X17153515Y-15035412D02*
X17134467Y-15054460D01*
X17134467Y-15054460D02*
X17105896Y-15063984D01*
X17105896Y-15063984D02*
X17058277Y-15063984D01*
X17258277Y-15063984D02*
X17258277Y-14930650D01*
X17258277Y-14968746D02*
X17267801Y-14949698D01*
X17267801Y-14949698D02*
X17277324Y-14940174D01*
X17277324Y-14940174D02*
X17296372Y-14930650D01*
X17296372Y-14930650D02*
X17315420Y-14930650D01*
X17382086Y-15063984D02*
X17382086Y-14930650D01*
X17382086Y-14863984D02*
X17372563Y-14873508D01*
X17372563Y-14873508D02*
X17382086Y-14883031D01*
X17382086Y-14883031D02*
X17391610Y-14873508D01*
X17391610Y-14873508D02*
X17382086Y-14863984D01*
X17382086Y-14863984D02*
X17382086Y-14883031D01*
X17505896Y-15063984D02*
X17486848Y-15054460D01*
X17486848Y-15054460D02*
X17477324Y-15035412D01*
X17477324Y-15035412D02*
X17477324Y-14863984D01*
X17610658Y-15063984D02*
X17591610Y-15054460D01*
X17591610Y-15054460D02*
X17582086Y-15035412D01*
X17582086Y-15035412D02*
X17582086Y-14863984D01*
X17839229Y-15063984D02*
X17839229Y-14863984D01*
X17839229Y-14863984D02*
X17905896Y-15006841D01*
X17905896Y-15006841D02*
X17972563Y-14863984D01*
X17972563Y-14863984D02*
X17972563Y-15063984D01*
X18153515Y-15063984D02*
X18153515Y-14959222D01*
X18153515Y-14959222D02*
X18143991Y-14940174D01*
X18143991Y-14940174D02*
X18124944Y-14930650D01*
X18124944Y-14930650D02*
X18086848Y-14930650D01*
X18086848Y-14930650D02*
X18067801Y-14940174D01*
X18153515Y-15054460D02*
X18134467Y-15063984D01*
X18134467Y-15063984D02*
X18086848Y-15063984D01*
X18086848Y-15063984D02*
X18067801Y-15054460D01*
X18067801Y-15054460D02*
X18058277Y-15035412D01*
X18058277Y-15035412D02*
X18058277Y-15016365D01*
X18058277Y-15016365D02*
X18067801Y-14997317D01*
X18067801Y-14997317D02*
X18086848Y-14987793D01*
X18086848Y-14987793D02*
X18134467Y-14987793D01*
X18134467Y-14987793D02*
X18153515Y-14978269D01*
X18248753Y-14930650D02*
X18248753Y-15130650D01*
X18248753Y-14940174D02*
X18267801Y-14930650D01*
X18267801Y-14930650D02*
X18305896Y-14930650D01*
X18305896Y-14930650D02*
X18324944Y-14940174D01*
X18324944Y-14940174D02*
X18334467Y-14949698D01*
X18334467Y-14949698D02*
X18343991Y-14968746D01*
X18343991Y-14968746D02*
X18343991Y-15025888D01*
X18343991Y-15025888D02*
X18334467Y-15044936D01*
X18334467Y-15044936D02*
X18324944Y-15054460D01*
X18324944Y-15054460D02*
X18305896Y-15063984D01*
X18305896Y-15063984D02*
X18267801Y-15063984D01*
X18267801Y-15063984D02*
X18248753Y-15054460D01*
X18429705Y-15044936D02*
X18439229Y-15054460D01*
X18439229Y-15054460D02*
X18429705Y-15063984D01*
X18429705Y-15063984D02*
X18420182Y-15054460D01*
X18420182Y-15054460D02*
X18429705Y-15044936D01*
X18429705Y-15044936D02*
X18429705Y-15063984D01*
X18429705Y-14940174D02*
X18439229Y-14949698D01*
X18439229Y-14949698D02*
X18429705Y-14959222D01*
X18429705Y-14959222D02*
X18420182Y-14949698D01*
X18420182Y-14949698D02*
X18429705Y-14940174D01*
X18429705Y-14940174D02*
X18429705Y-14959222D01*
D13*
X16732500Y-15360000D02*
X16797500Y-15425000D01*
X16797500Y-15360000D02*
X16732500Y-15425000D01*
D12*
X17096372Y-15283984D02*
X17115420Y-15283984D01*
X17115420Y-15283984D02*
X17134467Y-15293508D01*
X17134467Y-15293508D02*
X17143991Y-15303031D01*
X17143991Y-15303031D02*
X17153515Y-15322079D01*
X17153515Y-15322079D02*
X17163039Y-15360174D01*
X17163039Y-15360174D02*
X17163039Y-15407793D01*
X17163039Y-15407793D02*
X17153515Y-15445888D01*
X17153515Y-15445888D02*
X17143991Y-15464936D01*
X17143991Y-15464936D02*
X17134467Y-15474460D01*
X17134467Y-15474460D02*
X17115420Y-15483984D01*
X17115420Y-15483984D02*
X17096372Y-15483984D01*
X17096372Y-15483984D02*
X17077324Y-15474460D01*
X17077324Y-15474460D02*
X17067801Y-15464936D01*
X17067801Y-15464936D02*
X17058277Y-15445888D01*
X17058277Y-15445888D02*
X17048753Y-15407793D01*
X17048753Y-15407793D02*
X17048753Y-15360174D01*
X17048753Y-15360174D02*
X17058277Y-15322079D01*
X17058277Y-15322079D02*
X17067801Y-15303031D01*
X17067801Y-15303031D02*
X17077324Y-15293508D01*
X17077324Y-15293508D02*
X17096372Y-15283984D01*
X17248753Y-15464936D02*
X17258277Y-15474460D01*
X17258277Y-15474460D02*
X17248753Y-15483984D01*
X17248753Y-15483984D02*
X17239229Y-15474460D01*
X17239229Y-15474460D02*
X17248753Y-15464936D01*
X17248753Y-15464936D02*
X17248753Y-15483984D01*
X17429705Y-15283984D02*
X17391610Y-15283984D01*
X17391610Y-15283984D02*
X17372563Y-15293508D01*
X17372563Y-15293508D02*
X17363039Y-15303031D01*
X17363039Y-15303031D02*
X17343991Y-15331603D01*
X17343991Y-15331603D02*
X17334467Y-15369698D01*
X17334467Y-15369698D02*
X17334467Y-15445888D01*
X17334467Y-15445888D02*
X17343991Y-15464936D01*
X17343991Y-15464936D02*
X17353515Y-15474460D01*
X17353515Y-15474460D02*
X17372563Y-15483984D01*
X17372563Y-15483984D02*
X17410658Y-15483984D01*
X17410658Y-15483984D02*
X17429705Y-15474460D01*
X17429705Y-15474460D02*
X17439229Y-15464936D01*
X17439229Y-15464936D02*
X17448753Y-15445888D01*
X17448753Y-15445888D02*
X17448753Y-15398269D01*
X17448753Y-15398269D02*
X17439229Y-15379222D01*
X17439229Y-15379222D02*
X17429705Y-15369698D01*
X17429705Y-15369698D02*
X17410658Y-15360174D01*
X17410658Y-15360174D02*
X17372563Y-15360174D01*
X17372563Y-15360174D02*
X17353515Y-15369698D01*
X17353515Y-15369698D02*
X17343991Y-15379222D01*
X17343991Y-15379222D02*
X17334467Y-15398269D01*
X17629705Y-15283984D02*
X17534467Y-15283984D01*
X17534467Y-15283984D02*
X17524944Y-15379222D01*
X17524944Y-15379222D02*
X17534467Y-15369698D01*
X17534467Y-15369698D02*
X17553515Y-15360174D01*
X17553515Y-15360174D02*
X17601134Y-15360174D01*
X17601134Y-15360174D02*
X17620182Y-15369698D01*
X17620182Y-15369698D02*
X17629705Y-15379222D01*
X17629705Y-15379222D02*
X17639229Y-15398269D01*
X17639229Y-15398269D02*
X17639229Y-15445888D01*
X17639229Y-15445888D02*
X17629705Y-15464936D01*
X17629705Y-15464936D02*
X17620182Y-15474460D01*
X17620182Y-15474460D02*
X17601134Y-15483984D01*
X17601134Y-15483984D02*
X17553515Y-15483984D01*
X17553515Y-15483984D02*
X17534467Y-15474460D01*
X17534467Y-15474460D02*
X17524944Y-15464936D01*
X17763039Y-15283984D02*
X17782086Y-15283984D01*
X17782086Y-15283984D02*
X17801134Y-15293508D01*
X17801134Y-15293508D02*
X17810658Y-15303031D01*
X17810658Y-15303031D02*
X17820182Y-15322079D01*
X17820182Y-15322079D02*
X17829705Y-15360174D01*
X17829705Y-15360174D02*
X17829705Y-15407793D01*
X17829705Y-15407793D02*
X17820182Y-15445888D01*
X17820182Y-15445888D02*
X17810658Y-15464936D01*
X17810658Y-15464936D02*
X17801134Y-15474460D01*
X17801134Y-15474460D02*
X17782086Y-15483984D01*
X17782086Y-15483984D02*
X17763039Y-15483984D01*
X17763039Y-15483984D02*
X17743991Y-15474460D01*
X17743991Y-15474460D02*
X17734467Y-15464936D01*
X17734467Y-15464936D02*
X17724944Y-15445888D01*
X17724944Y-15445888D02*
X17715420Y-15407793D01*
X17715420Y-15407793D02*
X17715420Y-15360174D01*
X17715420Y-15360174D02*
X17724944Y-15322079D01*
X17724944Y-15322079D02*
X17734467Y-15303031D01*
X17734467Y-15303031D02*
X17743991Y-15293508D01*
X17743991Y-15293508D02*
X17763039Y-15283984D01*
X17915420Y-15483984D02*
X17915420Y-15350650D01*
X17915420Y-15369698D02*
X17924944Y-15360174D01*
X17924944Y-15360174D02*
X17943991Y-15350650D01*
X17943991Y-15350650D02*
X17972563Y-15350650D01*
X17972563Y-15350650D02*
X17991610Y-15360174D01*
X17991610Y-15360174D02*
X18001134Y-15379222D01*
X18001134Y-15379222D02*
X18001134Y-15483984D01*
X18001134Y-15379222D02*
X18010658Y-15360174D01*
X18010658Y-15360174D02*
X18029705Y-15350650D01*
X18029705Y-15350650D02*
X18058277Y-15350650D01*
X18058277Y-15350650D02*
X18077325Y-15360174D01*
X18077325Y-15360174D02*
X18086848Y-15379222D01*
X18086848Y-15379222D02*
X18086848Y-15483984D01*
X18182086Y-15483984D02*
X18182086Y-15350650D01*
X18182086Y-15369698D02*
X18191610Y-15360174D01*
X18191610Y-15360174D02*
X18210658Y-15350650D01*
X18210658Y-15350650D02*
X18239229Y-15350650D01*
X18239229Y-15350650D02*
X18258277Y-15360174D01*
X18258277Y-15360174D02*
X18267801Y-15379222D01*
X18267801Y-15379222D02*
X18267801Y-15483984D01*
X18267801Y-15379222D02*
X18277325Y-15360174D01*
X18277325Y-15360174D02*
X18296372Y-15350650D01*
X18296372Y-15350650D02*
X18324944Y-15350650D01*
X18324944Y-15350650D02*
X18343991Y-15360174D01*
X18343991Y-15360174D02*
X18353515Y-15379222D01*
X18353515Y-15379222D02*
X18353515Y-15483984D01*
X18743991Y-15274460D02*
X18572563Y-15531603D01*
X19001134Y-15283984D02*
X19020182Y-15283984D01*
X19020182Y-15283984D02*
X19039229Y-15293508D01*
X19039229Y-15293508D02*
X19048753Y-15303031D01*
X19048753Y-15303031D02*
X19058277Y-15322079D01*
X19058277Y-15322079D02*
X19067801Y-15360174D01*
X19067801Y-15360174D02*
X19067801Y-15407793D01*
X19067801Y-15407793D02*
X19058277Y-15445888D01*
X19058277Y-15445888D02*
X19048753Y-15464936D01*
X19048753Y-15464936D02*
X19039229Y-15474460D01*
X19039229Y-15474460D02*
X19020182Y-15483984D01*
X19020182Y-15483984D02*
X19001134Y-15483984D01*
X19001134Y-15483984D02*
X18982087Y-15474460D01*
X18982087Y-15474460D02*
X18972563Y-15464936D01*
X18972563Y-15464936D02*
X18963039Y-15445888D01*
X18963039Y-15445888D02*
X18953515Y-15407793D01*
X18953515Y-15407793D02*
X18953515Y-15360174D01*
X18953515Y-15360174D02*
X18963039Y-15322079D01*
X18963039Y-15322079D02*
X18972563Y-15303031D01*
X18972563Y-15303031D02*
X18982087Y-15293508D01*
X18982087Y-15293508D02*
X19001134Y-15283984D01*
X19153515Y-15464936D02*
X19163039Y-15474460D01*
X19163039Y-15474460D02*
X19153515Y-15483984D01*
X19153515Y-15483984D02*
X19143991Y-15474460D01*
X19143991Y-15474460D02*
X19153515Y-15464936D01*
X19153515Y-15464936D02*
X19153515Y-15483984D01*
X19286848Y-15283984D02*
X19305896Y-15283984D01*
X19305896Y-15283984D02*
X19324944Y-15293508D01*
X19324944Y-15293508D02*
X19334468Y-15303031D01*
X19334468Y-15303031D02*
X19343991Y-15322079D01*
X19343991Y-15322079D02*
X19353515Y-15360174D01*
X19353515Y-15360174D02*
X19353515Y-15407793D01*
X19353515Y-15407793D02*
X19343991Y-15445888D01*
X19343991Y-15445888D02*
X19334468Y-15464936D01*
X19334468Y-15464936D02*
X19324944Y-15474460D01*
X19324944Y-15474460D02*
X19305896Y-15483984D01*
X19305896Y-15483984D02*
X19286848Y-15483984D01*
X19286848Y-15483984D02*
X19267801Y-15474460D01*
X19267801Y-15474460D02*
X19258277Y-15464936D01*
X19258277Y-15464936D02*
X19248753Y-15445888D01*
X19248753Y-15445888D02*
X19239229Y-15407793D01*
X19239229Y-15407793D02*
X19239229Y-15360174D01*
X19239229Y-15360174D02*
X19248753Y-15322079D01*
X19248753Y-15322079D02*
X19258277Y-15303031D01*
X19258277Y-15303031D02*
X19267801Y-15293508D01*
X19267801Y-15293508D02*
X19286848Y-15283984D01*
X19429706Y-15303031D02*
X19439229Y-15293508D01*
X19439229Y-15293508D02*
X19458277Y-15283984D01*
X19458277Y-15283984D02*
X19505896Y-15283984D01*
X19505896Y-15283984D02*
X19524944Y-15293508D01*
X19524944Y-15293508D02*
X19534468Y-15303031D01*
X19534468Y-15303031D02*
X19543991Y-15322079D01*
X19543991Y-15322079D02*
X19543991Y-15341127D01*
X19543991Y-15341127D02*
X19534468Y-15369698D01*
X19534468Y-15369698D02*
X19420182Y-15483984D01*
X19420182Y-15483984D02*
X19543991Y-15483984D01*
X19724944Y-15283984D02*
X19629706Y-15283984D01*
X19629706Y-15283984D02*
X19620182Y-15379222D01*
X19620182Y-15379222D02*
X19629706Y-15369698D01*
X19629706Y-15369698D02*
X19648753Y-15360174D01*
X19648753Y-15360174D02*
X19696372Y-15360174D01*
X19696372Y-15360174D02*
X19715420Y-15369698D01*
X19715420Y-15369698D02*
X19724944Y-15379222D01*
X19724944Y-15379222D02*
X19734468Y-15398269D01*
X19734468Y-15398269D02*
X19734468Y-15445888D01*
X19734468Y-15445888D02*
X19724944Y-15464936D01*
X19724944Y-15464936D02*
X19715420Y-15474460D01*
X19715420Y-15474460D02*
X19696372Y-15483984D01*
X19696372Y-15483984D02*
X19648753Y-15483984D01*
X19648753Y-15483984D02*
X19629706Y-15474460D01*
X19629706Y-15474460D02*
X19620182Y-15464936D01*
X19905896Y-15283984D02*
X19867801Y-15283984D01*
X19867801Y-15283984D02*
X19848753Y-15293508D01*
X19848753Y-15293508D02*
X19839229Y-15303031D01*
X19839229Y-15303031D02*
X19820182Y-15331603D01*
X19820182Y-15331603D02*
X19810658Y-15369698D01*
X19810658Y-15369698D02*
X19810658Y-15445888D01*
X19810658Y-15445888D02*
X19820182Y-15464936D01*
X19820182Y-15464936D02*
X19829706Y-15474460D01*
X19829706Y-15474460D02*
X19848753Y-15483984D01*
X19848753Y-15483984D02*
X19886849Y-15483984D01*
X19886849Y-15483984D02*
X19905896Y-15474460D01*
X19905896Y-15474460D02*
X19915420Y-15464936D01*
X19915420Y-15464936D02*
X19924944Y-15445888D01*
X19924944Y-15445888D02*
X19924944Y-15398269D01*
X19924944Y-15398269D02*
X19915420Y-15379222D01*
X19915420Y-15379222D02*
X19905896Y-15369698D01*
X19905896Y-15369698D02*
X19886849Y-15360174D01*
X19886849Y-15360174D02*
X19848753Y-15360174D01*
X19848753Y-15360174D02*
X19829706Y-15369698D01*
X19829706Y-15369698D02*
X19820182Y-15379222D01*
X19820182Y-15379222D02*
X19810658Y-15398269D01*
X20001134Y-15283984D02*
X20001134Y-15322079D01*
X20077325Y-15283984D02*
X20077325Y-15322079D01*
X20372563Y-15560174D02*
X20363039Y-15550650D01*
X20363039Y-15550650D02*
X20343991Y-15522079D01*
X20343991Y-15522079D02*
X20334468Y-15503031D01*
X20334468Y-15503031D02*
X20324944Y-15474460D01*
X20324944Y-15474460D02*
X20315420Y-15426841D01*
X20315420Y-15426841D02*
X20315420Y-15388746D01*
X20315420Y-15388746D02*
X20324944Y-15341127D01*
X20324944Y-15341127D02*
X20334468Y-15312555D01*
X20334468Y-15312555D02*
X20343991Y-15293508D01*
X20343991Y-15293508D02*
X20363039Y-15264936D01*
X20363039Y-15264936D02*
X20372563Y-15255412D01*
X20439230Y-15303031D02*
X20448753Y-15293508D01*
X20448753Y-15293508D02*
X20467801Y-15283984D01*
X20467801Y-15283984D02*
X20515420Y-15283984D01*
X20515420Y-15283984D02*
X20534468Y-15293508D01*
X20534468Y-15293508D02*
X20543991Y-15303031D01*
X20543991Y-15303031D02*
X20553515Y-15322079D01*
X20553515Y-15322079D02*
X20553515Y-15341127D01*
X20553515Y-15341127D02*
X20543991Y-15369698D01*
X20543991Y-15369698D02*
X20429706Y-15483984D01*
X20429706Y-15483984D02*
X20553515Y-15483984D01*
X20791611Y-15483984D02*
X20791611Y-15283984D01*
X20877325Y-15483984D02*
X20877325Y-15379222D01*
X20877325Y-15379222D02*
X20867801Y-15360174D01*
X20867801Y-15360174D02*
X20848753Y-15350650D01*
X20848753Y-15350650D02*
X20820182Y-15350650D01*
X20820182Y-15350650D02*
X20801134Y-15360174D01*
X20801134Y-15360174D02*
X20791611Y-15369698D01*
X21001134Y-15483984D02*
X20982087Y-15474460D01*
X20982087Y-15474460D02*
X20972563Y-15464936D01*
X20972563Y-15464936D02*
X20963039Y-15445888D01*
X20963039Y-15445888D02*
X20963039Y-15388746D01*
X20963039Y-15388746D02*
X20972563Y-15369698D01*
X20972563Y-15369698D02*
X20982087Y-15360174D01*
X20982087Y-15360174D02*
X21001134Y-15350650D01*
X21001134Y-15350650D02*
X21029706Y-15350650D01*
X21029706Y-15350650D02*
X21048753Y-15360174D01*
X21048753Y-15360174D02*
X21058277Y-15369698D01*
X21058277Y-15369698D02*
X21067801Y-15388746D01*
X21067801Y-15388746D02*
X21067801Y-15445888D01*
X21067801Y-15445888D02*
X21058277Y-15464936D01*
X21058277Y-15464936D02*
X21048753Y-15474460D01*
X21048753Y-15474460D02*
X21029706Y-15483984D01*
X21029706Y-15483984D02*
X21001134Y-15483984D01*
X21182087Y-15483984D02*
X21163039Y-15474460D01*
X21163039Y-15474460D02*
X21153515Y-15455412D01*
X21153515Y-15455412D02*
X21153515Y-15283984D01*
X21334468Y-15474460D02*
X21315420Y-15483984D01*
X21315420Y-15483984D02*
X21277325Y-15483984D01*
X21277325Y-15483984D02*
X21258277Y-15474460D01*
X21258277Y-15474460D02*
X21248753Y-15455412D01*
X21248753Y-15455412D02*
X21248753Y-15379222D01*
X21248753Y-15379222D02*
X21258277Y-15360174D01*
X21258277Y-15360174D02*
X21277325Y-15350650D01*
X21277325Y-15350650D02*
X21315420Y-15350650D01*
X21315420Y-15350650D02*
X21334468Y-15360174D01*
X21334468Y-15360174D02*
X21343992Y-15379222D01*
X21343992Y-15379222D02*
X21343992Y-15398269D01*
X21343992Y-15398269D02*
X21248753Y-15417317D01*
X21420182Y-15474460D02*
X21439230Y-15483984D01*
X21439230Y-15483984D02*
X21477325Y-15483984D01*
X21477325Y-15483984D02*
X21496373Y-15474460D01*
X21496373Y-15474460D02*
X21505896Y-15455412D01*
X21505896Y-15455412D02*
X21505896Y-15445888D01*
X21505896Y-15445888D02*
X21496373Y-15426841D01*
X21496373Y-15426841D02*
X21477325Y-15417317D01*
X21477325Y-15417317D02*
X21448753Y-15417317D01*
X21448753Y-15417317D02*
X21429706Y-15407793D01*
X21429706Y-15407793D02*
X21420182Y-15388746D01*
X21420182Y-15388746D02*
X21420182Y-15379222D01*
X21420182Y-15379222D02*
X21429706Y-15360174D01*
X21429706Y-15360174D02*
X21448753Y-15350650D01*
X21448753Y-15350650D02*
X21477325Y-15350650D01*
X21477325Y-15350650D02*
X21496373Y-15360174D01*
X21572563Y-15560174D02*
X21582087Y-15550650D01*
X21582087Y-15550650D02*
X21601134Y-15522079D01*
X21601134Y-15522079D02*
X21610658Y-15503031D01*
X21610658Y-15503031D02*
X21620182Y-15474460D01*
X21620182Y-15474460D02*
X21629706Y-15426841D01*
X21629706Y-15426841D02*
X21629706Y-15388746D01*
X21629706Y-15388746D02*
X21620182Y-15341127D01*
X21620182Y-15341127D02*
X21610658Y-15312555D01*
X21610658Y-15312555D02*
X21601134Y-15293508D01*
X21601134Y-15293508D02*
X21582087Y-15264936D01*
X21582087Y-15264936D02*
X21572563Y-15255412D01*
X21934468Y-15560174D02*
X21924944Y-15550650D01*
X21924944Y-15550650D02*
X21905896Y-15522079D01*
X21905896Y-15522079D02*
X21896373Y-15503031D01*
X21896373Y-15503031D02*
X21886849Y-15474460D01*
X21886849Y-15474460D02*
X21877325Y-15426841D01*
X21877325Y-15426841D02*
X21877325Y-15388746D01*
X21877325Y-15388746D02*
X21886849Y-15341127D01*
X21886849Y-15341127D02*
X21896373Y-15312555D01*
X21896373Y-15312555D02*
X21905896Y-15293508D01*
X21905896Y-15293508D02*
X21924944Y-15264936D01*
X21924944Y-15264936D02*
X21934468Y-15255412D01*
X22010658Y-15350650D02*
X22010658Y-15483984D01*
X22010658Y-15369698D02*
X22020182Y-15360174D01*
X22020182Y-15360174D02*
X22039230Y-15350650D01*
X22039230Y-15350650D02*
X22067801Y-15350650D01*
X22067801Y-15350650D02*
X22086849Y-15360174D01*
X22086849Y-15360174D02*
X22096373Y-15379222D01*
X22096373Y-15379222D02*
X22096373Y-15483984D01*
X22220182Y-15483984D02*
X22201134Y-15474460D01*
X22201134Y-15474460D02*
X22191611Y-15464936D01*
X22191611Y-15464936D02*
X22182087Y-15445888D01*
X22182087Y-15445888D02*
X22182087Y-15388746D01*
X22182087Y-15388746D02*
X22191611Y-15369698D01*
X22191611Y-15369698D02*
X22201134Y-15360174D01*
X22201134Y-15360174D02*
X22220182Y-15350650D01*
X22220182Y-15350650D02*
X22248754Y-15350650D01*
X22248754Y-15350650D02*
X22267801Y-15360174D01*
X22267801Y-15360174D02*
X22277325Y-15369698D01*
X22277325Y-15369698D02*
X22286849Y-15388746D01*
X22286849Y-15388746D02*
X22286849Y-15445888D01*
X22286849Y-15445888D02*
X22277325Y-15464936D01*
X22277325Y-15464936D02*
X22267801Y-15474460D01*
X22267801Y-15474460D02*
X22248754Y-15483984D01*
X22248754Y-15483984D02*
X22220182Y-15483984D01*
X22343992Y-15350650D02*
X22420182Y-15350650D01*
X22372563Y-15283984D02*
X22372563Y-15455412D01*
X22372563Y-15455412D02*
X22382087Y-15474460D01*
X22382087Y-15474460D02*
X22401134Y-15483984D01*
X22401134Y-15483984D02*
X22420182Y-15483984D01*
X22639230Y-15350650D02*
X22639230Y-15550650D01*
X22639230Y-15360174D02*
X22658277Y-15350650D01*
X22658277Y-15350650D02*
X22696373Y-15350650D01*
X22696373Y-15350650D02*
X22715420Y-15360174D01*
X22715420Y-15360174D02*
X22724944Y-15369698D01*
X22724944Y-15369698D02*
X22734468Y-15388746D01*
X22734468Y-15388746D02*
X22734468Y-15445888D01*
X22734468Y-15445888D02*
X22724944Y-15464936D01*
X22724944Y-15464936D02*
X22715420Y-15474460D01*
X22715420Y-15474460D02*
X22696373Y-15483984D01*
X22696373Y-15483984D02*
X22658277Y-15483984D01*
X22658277Y-15483984D02*
X22639230Y-15474460D01*
X22848753Y-15483984D02*
X22829706Y-15474460D01*
X22829706Y-15474460D02*
X22820182Y-15455412D01*
X22820182Y-15455412D02*
X22820182Y-15283984D01*
X23010658Y-15483984D02*
X23010658Y-15379222D01*
X23010658Y-15379222D02*
X23001134Y-15360174D01*
X23001134Y-15360174D02*
X22982087Y-15350650D01*
X22982087Y-15350650D02*
X22943992Y-15350650D01*
X22943992Y-15350650D02*
X22924944Y-15360174D01*
X23010658Y-15474460D02*
X22991611Y-15483984D01*
X22991611Y-15483984D02*
X22943992Y-15483984D01*
X22943992Y-15483984D02*
X22924944Y-15474460D01*
X22924944Y-15474460D02*
X22915420Y-15455412D01*
X22915420Y-15455412D02*
X22915420Y-15436365D01*
X22915420Y-15436365D02*
X22924944Y-15417317D01*
X22924944Y-15417317D02*
X22943992Y-15407793D01*
X22943992Y-15407793D02*
X22991611Y-15407793D01*
X22991611Y-15407793D02*
X23010658Y-15398269D01*
X23077325Y-15350650D02*
X23153515Y-15350650D01*
X23105896Y-15283984D02*
X23105896Y-15455412D01*
X23105896Y-15455412D02*
X23115420Y-15474460D01*
X23115420Y-15474460D02*
X23134468Y-15483984D01*
X23134468Y-15483984D02*
X23153515Y-15483984D01*
X23296373Y-15474460D02*
X23277325Y-15483984D01*
X23277325Y-15483984D02*
X23239230Y-15483984D01*
X23239230Y-15483984D02*
X23220182Y-15474460D01*
X23220182Y-15474460D02*
X23210658Y-15455412D01*
X23210658Y-15455412D02*
X23210658Y-15379222D01*
X23210658Y-15379222D02*
X23220182Y-15360174D01*
X23220182Y-15360174D02*
X23239230Y-15350650D01*
X23239230Y-15350650D02*
X23277325Y-15350650D01*
X23277325Y-15350650D02*
X23296373Y-15360174D01*
X23296373Y-15360174D02*
X23305896Y-15379222D01*
X23305896Y-15379222D02*
X23305896Y-15398269D01*
X23305896Y-15398269D02*
X23210658Y-15417317D01*
X23477325Y-15483984D02*
X23477325Y-15283984D01*
X23477325Y-15474460D02*
X23458277Y-15483984D01*
X23458277Y-15483984D02*
X23420182Y-15483984D01*
X23420182Y-15483984D02*
X23401134Y-15474460D01*
X23401134Y-15474460D02*
X23391611Y-15464936D01*
X23391611Y-15464936D02*
X23382087Y-15445888D01*
X23382087Y-15445888D02*
X23382087Y-15388746D01*
X23382087Y-15388746D02*
X23391611Y-15369698D01*
X23391611Y-15369698D02*
X23401134Y-15360174D01*
X23401134Y-15360174D02*
X23420182Y-15350650D01*
X23420182Y-15350650D02*
X23458277Y-15350650D01*
X23458277Y-15350650D02*
X23477325Y-15360174D01*
X23553515Y-15560174D02*
X23563039Y-15550650D01*
X23563039Y-15550650D02*
X23582087Y-15522079D01*
X23582087Y-15522079D02*
X23591611Y-15503031D01*
X23591611Y-15503031D02*
X23601134Y-15474460D01*
X23601134Y-15474460D02*
X23610658Y-15426841D01*
X23610658Y-15426841D02*
X23610658Y-15388746D01*
X23610658Y-15388746D02*
X23601134Y-15341127D01*
X23601134Y-15341127D02*
X23591611Y-15312555D01*
X23591611Y-15312555D02*
X23582087Y-15293508D01*
X23582087Y-15293508D02*
X23563039Y-15264936D01*
X23563039Y-15264936D02*
X23553515Y-15255412D01*
M02*
