G04 #@! TF.GenerationSoftware,KiCad,Pcbnew,10.0.5*
G04 #@! TF.CreationDate,2026-09-06T19:49:15+07:00*
G04 #@! TF.ProjectId,Nailem,4e61696c-656d-42e6-9b69-6361645f7063,rev?*
G04 #@! TF.SameCoordinates,Original*
G04 #@! TF.FileFunction,Other,User*
%FSLAX46Y46*%
G04 Gerber Fmt 4.6, Leading zero omitted, Abs format (unit mm)*
G04 Created by KiCad (PCBNEW 10.0.5) date 2026-09-06 19:49:15*
%MOMM*%
%LPD*%
G01*
G04 APERTURE LIST*
%ADD10C,0.012500*%
%ADD11C,0.050000*%
%ADD12C,0.120000*%
G04 APERTURE END LIST*
G04 #@! TO.C,Q7*
D10*
X207540000Y-134975000D02*
X213040000Y-134975000D01*
X213040000Y-142075000D01*
X207540000Y-142075000D01*
X207540000Y-134975000D01*
G04 #@! TO.C,Q8*
X200615000Y-134975000D02*
X206115000Y-134975000D01*
X206115000Y-142075000D01*
X200615000Y-142075000D01*
X200615000Y-134975000D01*
G04 #@! TO.C,Q5*
X221210000Y-134975000D02*
X226710000Y-134975000D01*
X226710000Y-142075000D01*
X221210000Y-142075000D01*
X221210000Y-134975000D01*
G04 #@! TO.C,Q6*
X214325000Y-134975000D02*
X219825000Y-134975000D01*
X219825000Y-142075000D01*
X214325000Y-142075000D01*
X214325000Y-134975000D01*
G04 #@! TO.C,D10*
D11*
X193750000Y-73050000D02*
X193750000Y-82950000D01*
X193750000Y-82950000D02*
X198250000Y-82950000D01*
X198250000Y-73050000D02*
X193750000Y-73050000D01*
X198250000Y-82950000D02*
X198250000Y-73050000D01*
G04 #@! TO.C,D3*
X193750000Y-123550000D02*
X193750000Y-133450000D01*
X193750000Y-133450000D02*
X198250000Y-133450000D01*
X198250000Y-123550000D02*
X193750000Y-123550000D01*
X198250000Y-133450000D02*
X198250000Y-123550000D01*
G04 #@! TO.C,D6*
X193750000Y-106550000D02*
X193750000Y-116450000D01*
X193750000Y-116450000D02*
X198250000Y-116450000D01*
X198250000Y-106550000D02*
X193750000Y-106550000D01*
X198250000Y-116450000D02*
X198250000Y-106550000D01*
G04 #@! TO.C,D8*
X193750000Y-89550000D02*
X193750000Y-99450000D01*
X193750000Y-99450000D02*
X198250000Y-99450000D01*
X198250000Y-89550000D02*
X193750000Y-89550000D01*
X198250000Y-99450000D02*
X198250000Y-89550000D01*
G04 #@! TO.C,U3*
D12*
X240750000Y-87500000D02*
X240750000Y-55500000D01*
X202250000Y-55500000D02*
X202250000Y-87500000D01*
X202250000Y-87500000D02*
X240750000Y-87500000D01*
X240650000Y-55500000D02*
X202250000Y-55500000D01*
X240750000Y-55500000D02*
X240650000Y-55500000D01*
G04 #@! TO.C,R4*
D11*
X253512500Y-122095000D02*
X253512500Y-123995000D01*
X257212500Y-122095000D02*
X253512500Y-122095000D01*
X253512500Y-123995000D02*
X257212500Y-123995000D01*
X257212500Y-123995000D02*
X257212500Y-122095000D01*
G04 #@! TO.C,C7*
X253482500Y-124565000D02*
X257242500Y-124565000D01*
X257242500Y-126525000D01*
X253482500Y-126525000D01*
X253482500Y-124565000D01*
G04 #@! TO.C,R25*
X210110000Y-134850000D02*
X210110000Y-131150000D01*
X208210000Y-134850000D02*
X210110000Y-134850000D01*
X210110000Y-131150000D02*
X208210000Y-131150000D01*
X208210000Y-131150000D02*
X208210000Y-134850000D01*
G04 #@! TO.C,R27*
X201005000Y-131175000D02*
X201005000Y-134875000D01*
X202905000Y-131175000D02*
X201005000Y-131175000D01*
X201005000Y-134875000D02*
X202905000Y-134875000D01*
X202905000Y-134875000D02*
X202905000Y-131175000D01*
G04 #@! TO.C,R26*
X204005000Y-131175000D02*
X204005000Y-134875000D01*
X205905000Y-131175000D02*
X204005000Y-131175000D01*
X204005000Y-134875000D02*
X205905000Y-134875000D01*
X205905000Y-134875000D02*
X205905000Y-131175000D01*
G04 #@! TO.C,R23*
X216675000Y-134875000D02*
X216675000Y-131175000D01*
X214775000Y-134875000D02*
X216675000Y-134875000D01*
X216675000Y-131175000D02*
X214775000Y-131175000D01*
X214775000Y-131175000D02*
X214775000Y-134875000D01*
G04 #@! TO.C,R24*
X211210000Y-131175000D02*
X211210000Y-134875000D01*
X213110000Y-131175000D02*
X211210000Y-131175000D01*
X211210000Y-134875000D02*
X213110000Y-134875000D01*
X213110000Y-134875000D02*
X213110000Y-131175000D01*
G04 #@! TO.C,R22*
X217775000Y-131175000D02*
X217775000Y-134875000D01*
X219675000Y-131175000D02*
X217775000Y-131175000D01*
X217775000Y-134875000D02*
X219675000Y-134875000D01*
X219675000Y-134875000D02*
X219675000Y-131175000D01*
G04 #@! TO.C,R20*
X223840000Y-134875000D02*
X223840000Y-131175000D01*
X221940000Y-134875000D02*
X223840000Y-134875000D01*
X223840000Y-131175000D02*
X221940000Y-131175000D01*
X221940000Y-131175000D02*
X221940000Y-134875000D01*
G04 #@! TO.C,R21*
X224940000Y-131175000D02*
X224940000Y-134875000D01*
X226840000Y-131175000D02*
X224940000Y-131175000D01*
X224940000Y-134875000D02*
X226840000Y-134875000D01*
X226840000Y-134875000D02*
X226840000Y-131175000D01*
G04 #@! TO.C,R42*
X248350000Y-93050000D02*
X244650000Y-93050000D01*
X248350000Y-94950000D02*
X248350000Y-93050000D01*
X244650000Y-93050000D02*
X244650000Y-94950000D01*
X244650000Y-94950000D02*
X248350000Y-94950000D01*
G04 #@! TO.C,R41*
X248375000Y-96050000D02*
X244675000Y-96050000D01*
X248375000Y-97950000D02*
X248375000Y-96050000D01*
X244675000Y-96050000D02*
X244675000Y-97950000D01*
X244675000Y-97950000D02*
X248375000Y-97950000D01*
G04 #@! TO.C,R29*
X233200000Y-95400000D02*
X231300000Y-95400000D01*
X233200000Y-99100000D02*
X233200000Y-95400000D01*
X231300000Y-95400000D02*
X231300000Y-99100000D01*
X231300000Y-99100000D02*
X233200000Y-99100000D01*
G04 #@! TO.C,C12*
X242420000Y-141420000D02*
X244380000Y-141420000D01*
X244380000Y-145180000D01*
X242420000Y-145180000D01*
X242420000Y-141420000D01*
G04 #@! TO.C,R28*
X228800000Y-99100000D02*
X230700000Y-99100000D01*
X228800000Y-95400000D02*
X228800000Y-99100000D01*
X230700000Y-99100000D02*
X230700000Y-95400000D01*
X230700000Y-95400000D02*
X228800000Y-95400000D01*
G04 #@! TO.C,R30*
X208050000Y-89550000D02*
X211750000Y-89550000D01*
X208050000Y-87650000D02*
X208050000Y-89550000D01*
X211750000Y-89550000D02*
X211750000Y-87650000D01*
X211750000Y-87650000D02*
X208050000Y-87650000D01*
G04 #@! TO.C,R7*
X189675000Y-132050000D02*
X189675000Y-133950000D01*
X189675000Y-133950000D02*
X193375000Y-133950000D01*
X193375000Y-132050000D02*
X189675000Y-132050000D01*
X193375000Y-133950000D02*
X193375000Y-132050000D01*
G04 #@! TO.C,R6*
X189625000Y-129550000D02*
X189625000Y-131450000D01*
X189625000Y-131450000D02*
X193325000Y-131450000D01*
X193325000Y-129550000D02*
X189625000Y-129550000D01*
X193325000Y-131450000D02*
X193325000Y-129550000D01*
G04 #@! TO.C,Q1*
X189750000Y-122800000D02*
X189750000Y-126200000D01*
X189750000Y-126200000D02*
X193250000Y-126200000D01*
X193250000Y-122800000D02*
X189750000Y-122800000D01*
X193250000Y-126200000D02*
X193250000Y-122800000D01*
G04 #@! TO.C,C9*
X182520000Y-136857500D02*
X184480000Y-136857500D01*
X184480000Y-140617500D01*
X182520000Y-140617500D01*
X182520000Y-136857500D01*
G04 #@! TO.C,Q3*
X189750000Y-88800000D02*
X189750000Y-92200000D01*
X189750000Y-92200000D02*
X193250000Y-92200000D01*
X193250000Y-88800000D02*
X189750000Y-88800000D01*
X193250000Y-92200000D02*
X193250000Y-88800000D01*
G04 #@! TO.C,Q4*
X189700000Y-69800000D02*
X189700000Y-73200000D01*
X189700000Y-73200000D02*
X193200000Y-73200000D01*
X193200000Y-69800000D02*
X189700000Y-69800000D01*
X193200000Y-73200000D02*
X193200000Y-69800000D01*
G04 #@! TO.C,D12*
X179350000Y-142130000D02*
X186650000Y-142130000D01*
X186650000Y-145870000D01*
X179350000Y-145870000D01*
X179350000Y-142130000D01*
G04 #@! TO.C,R13*
X189650000Y-95550000D02*
X189650000Y-97450000D01*
X189650000Y-97450000D02*
X193350000Y-97450000D01*
X193350000Y-95550000D02*
X189650000Y-95550000D01*
X193350000Y-97450000D02*
X193350000Y-95550000D01*
G04 #@! TO.C,R14*
X189675000Y-79050000D02*
X189675000Y-80950000D01*
X189675000Y-80950000D02*
X193375000Y-80950000D01*
X193375000Y-79050000D02*
X189675000Y-79050000D01*
X193375000Y-80950000D02*
X193375000Y-79050000D01*
G04 #@! TO.C,R15*
X189650000Y-74050000D02*
X189650000Y-75950000D01*
X189650000Y-75950000D02*
X193350000Y-75950000D01*
X193350000Y-74050000D02*
X189650000Y-74050000D01*
X193350000Y-75950000D02*
X193350000Y-74050000D01*
G04 #@! TO.C,D11*
X187350000Y-142130000D02*
X194650000Y-142130000D01*
X194650000Y-145870000D01*
X187350000Y-145870000D01*
X187350000Y-142130000D01*
G04 #@! TO.C,C8*
X185020000Y-136857500D02*
X186980000Y-136857500D01*
X186980000Y-140617500D01*
X185020000Y-140617500D01*
X185020000Y-136857500D01*
G04 #@! TO.C,R12*
X189650000Y-93050000D02*
X189650000Y-94950000D01*
X189650000Y-94950000D02*
X193350000Y-94950000D01*
X193350000Y-93050000D02*
X189650000Y-93050000D01*
X193350000Y-94950000D02*
X193350000Y-93050000D01*
G04 #@! TO.C,R5*
X189650000Y-127050000D02*
X189650000Y-128950000D01*
X189650000Y-128950000D02*
X193350000Y-128950000D01*
X193350000Y-127050000D02*
X189650000Y-127050000D01*
X193350000Y-128950000D02*
X193350000Y-127050000D01*
G04 #@! TO.C,R16*
X189625000Y-76550000D02*
X189625000Y-78450000D01*
X189625000Y-78450000D02*
X193325000Y-78450000D01*
X193325000Y-76550000D02*
X189625000Y-76550000D01*
X193325000Y-78450000D02*
X193325000Y-76550000D01*
G04 #@! TO.C,R11*
X189650000Y-98050000D02*
X189650000Y-99950000D01*
X189650000Y-99950000D02*
X193350000Y-99950000D01*
X193350000Y-98050000D02*
X189650000Y-98050000D01*
X193350000Y-99950000D02*
X193350000Y-98050000D01*
G04 #@! TO.C,R9*
X189650000Y-110050000D02*
X189650000Y-111950000D01*
X189650000Y-111950000D02*
X193350000Y-111950000D01*
X193350000Y-110050000D02*
X189650000Y-110050000D01*
X193350000Y-111950000D02*
X193350000Y-110050000D01*
G04 #@! TO.C,R8*
X189650000Y-115050000D02*
X189650000Y-116950000D01*
X189650000Y-116950000D02*
X193350000Y-116950000D01*
X193350000Y-115050000D02*
X189650000Y-115050000D01*
X193350000Y-116950000D02*
X193350000Y-115050000D01*
G04 #@! TO.C,R19*
X189950000Y-136887500D02*
X188050000Y-136887500D01*
X188050000Y-136887500D02*
X188050000Y-140587500D01*
X189950000Y-140587500D02*
X189950000Y-136887500D01*
X188050000Y-140587500D02*
X189950000Y-140587500D01*
G04 #@! TO.C,Q2*
X189750000Y-105800000D02*
X189750000Y-109200000D01*
X189750000Y-109200000D02*
X193250000Y-109200000D01*
X193250000Y-105800000D02*
X189750000Y-105800000D01*
X193250000Y-109200000D02*
X193250000Y-105800000D01*
G04 #@! TO.C,R10*
X189625000Y-112550000D02*
X189625000Y-114450000D01*
X189625000Y-114450000D02*
X193325000Y-114450000D01*
X193325000Y-112550000D02*
X189625000Y-112550000D01*
X193325000Y-114450000D02*
X193325000Y-112550000D01*
G04 #@! TD*
M02*
