M48
; DRILL file KiCad 10.0.5 date 2026-09-06T19:49:15
; FORMAT={-:-/ absolute / metric / decimal}
; #@! TF.CreationDate,2026-09-06T19:49:15+07:00
; #@! TF.GenerationSoftware,Kicad,Pcbnew,10.0.5
; #@! TF.FileFunction,Plated,1,2,PTH
FMAT,2
METRIC
; #@! TA.AperFunction,Plated,PTH,ComponentDrill
T1C0.200
; #@! TA.AperFunction,Plated,PTH,ViaDrill
T2C0.300
; #@! TA.AperFunction,Plated,PTH,ComponentDrill
T3C0.500
; #@! TA.AperFunction,Plated,PTH,ComponentDrill
T4C0.600
; #@! TA.AperFunction,Plated,PTH,ComponentDrill
T5C0.800
; #@! TA.AperFunction,Plated,PTH,ComponentDrill
T6C0.950
; #@! TA.AperFunction,Plated,PTH,ComponentDrill
T7C1.000
; #@! TA.AperFunction,Plated,PTH,ComponentDrill
T8C1.200
; #@! TA.AperFunction,Plated,PTH,ComponentDrill
T9C1.300
; #@! TA.AperFunction,Plated,PTH,ComponentDrill
T10C1.500
; #@! TA.AperFunction,Plated,PTH,ComponentDrill
T11C3.200
%
G90
G05
T1
X252.2Y-89.7
X252.2Y-91.1
X252.9Y-89.0
X252.9Y-90.4
X252.9Y-91.8
X253.6Y-89.7
X253.6Y-91.1
X254.3Y-89.0
X254.3Y-90.4
X254.3Y-91.8
X255.0Y-89.7
X255.0Y-91.1
T2
X170.0Y-62.0
X170.0Y-65.0
X170.0Y-68.0
X170.0Y-71.0
X170.0Y-74.0
X170.0Y-77.0
X170.0Y-80.0
X170.0Y-83.0
X170.0Y-86.0
X170.0Y-89.0
X170.0Y-92.0
X170.0Y-95.0
X170.0Y-98.0
X170.0Y-101.0
X170.0Y-104.0
X170.0Y-107.0
X170.0Y-110.0
X170.0Y-113.0
X170.0Y-116.0
X170.0Y-119.0
X170.0Y-122.0
X170.0Y-125.0
X170.0Y-128.0
X170.0Y-131.0
X170.0Y-134.0
X170.0Y-137.0
X170.0Y-140.0
X173.0Y-62.0
X173.0Y-65.0
X173.0Y-68.0
X173.0Y-71.0
X173.0Y-74.0
X173.0Y-77.0
X173.0Y-80.0
X173.0Y-83.0
X173.0Y-86.0
X173.0Y-89.0
X173.0Y-92.0
X173.0Y-95.0
X173.0Y-98.0
X173.0Y-101.0
X173.0Y-104.0
X173.0Y-107.0
X173.0Y-110.0
X173.0Y-113.0
X173.0Y-116.0
X173.0Y-119.0
X173.0Y-122.0
X173.0Y-125.0
X173.0Y-128.0
X173.0Y-131.0
X173.0Y-134.0
X173.0Y-137.0
X176.0Y-56.0
X176.0Y-59.0
X176.0Y-62.0
X176.0Y-65.0
X176.0Y-68.0
X176.0Y-71.0
X176.0Y-74.0
X176.0Y-77.0
X176.0Y-80.0
X176.0Y-83.0
X176.0Y-86.0
X176.0Y-89.0
X176.0Y-92.0
X176.0Y-95.0
X176.0Y-98.0
X176.0Y-101.0
X176.0Y-104.0
X176.0Y-107.0
X176.0Y-110.0
X176.0Y-113.0
X176.0Y-116.0
X176.0Y-119.0
X176.0Y-122.0
X176.0Y-125.0
X176.0Y-128.0
X176.0Y-131.0
X176.0Y-134.0
X176.0Y-137.0
X176.0Y-140.0
X176.0Y-143.0
X176.0Y-146.0
X177.95Y-101.0
X177.95Y-135.0
X177.975Y-84.5
X177.975Y-118.0
X178.0Y-54.5
X179.0Y-56.0
X179.0Y-59.0
X179.0Y-62.0
X179.0Y-65.0
X179.0Y-68.0
X179.0Y-71.0
X179.0Y-83.0
X179.0Y-86.0
X179.0Y-92.0
X179.0Y-104.0
X179.0Y-116.0
X179.0Y-119.0
X179.0Y-122.0
X179.0Y-125.0
X179.0Y-137.0
X179.0Y-140.0
X179.0Y-143.0
X179.0Y-146.0
X181.0Y-54.5
X182.0Y-56.0
X182.0Y-59.0
X182.0Y-65.0
X182.0Y-68.0
X182.0Y-71.0
X182.0Y-74.0
X182.0Y-77.0
X182.0Y-86.0
X182.0Y-89.0
X182.0Y-92.0
X182.0Y-101.0
X182.0Y-104.0
X182.0Y-107.0
X182.0Y-110.0
X182.0Y-119.0
X182.0Y-122.0
X182.0Y-125.0
X182.0Y-137.0
X183.5Y-137.7
X184.0Y-54.5
X185.0Y-56.0
X185.0Y-59.0
X185.0Y-62.0
X185.0Y-65.0
X185.0Y-68.0
X185.725Y-144.75
X186.0Y-137.7
X186.5Y-98.0
X187.0Y-54.5
X188.0Y-56.0
X188.0Y-59.0
X188.0Y-68.0
X188.0Y-71.0
X188.0Y-74.0
X188.0Y-77.0
X188.0Y-80.0
X188.0Y-83.0
X188.0Y-86.0
X189.0Y-137.713
X190.0Y-54.5
X190.475Y-72.525
X190.475Y-75.0
X190.475Y-92.5
X190.475Y-99.0
X190.475Y-109.0
X190.475Y-110.0
X190.475Y-111.0
X190.475Y-116.0
X190.475Y-126.0
X190.475Y-127.0
X190.475Y-128.0
X190.5Y-80.0
X190.5Y-91.5
X190.5Y-93.5
X190.5Y-133.0
X191.0Y-56.0
X191.0Y-65.0
X191.0Y-68.0
X191.0Y-83.0
X191.0Y-104.0
X191.0Y-119.0
X191.0Y-122.0
X192.525Y-99.0
X192.525Y-116.0
X192.55Y-80.0
X192.55Y-133.0
X193.0Y-54.5
X193.725Y-144.75
X194.0Y-56.0
X194.0Y-62.0
X194.0Y-65.0
X194.0Y-68.0
X194.0Y-74.0
X194.0Y-77.0
X194.0Y-80.0
X194.0Y-86.0
X194.0Y-104.0
X194.0Y-110.0
X194.0Y-113.0
X194.0Y-116.0
X194.0Y-122.0
X194.0Y-125.0
X194.0Y-128.0
X194.0Y-131.0
X194.0Y-137.0
X194.0Y-140.0
X196.0Y-54.5
X197.0Y-56.0
X197.0Y-62.0
X197.0Y-65.0
X197.0Y-68.0
X197.0Y-137.0
X197.0Y-140.0
X199.0Y-54.5
X200.0Y-56.0
X200.0Y-68.0
X200.0Y-71.0
X200.0Y-74.0
X200.0Y-92.0
X200.0Y-98.0
X200.0Y-101.0
X200.0Y-107.0
X200.0Y-116.0
X200.0Y-131.0
X200.0Y-134.0
X200.0Y-137.0
X201.5Y-123.0
X201.5Y-124.0
X201.5Y-125.0
X201.5Y-126.0
X201.5Y-127.0
X201.5Y-128.0
X202.0Y-54.5
X202.5Y-123.0
X202.5Y-124.0
X202.5Y-125.0
X202.5Y-126.0
X202.5Y-127.0
X202.5Y-128.0
X203.0Y-56.0
X203.0Y-68.0
X203.5Y-123.0
X203.5Y-124.0
X203.5Y-125.0
X203.5Y-126.0
X203.5Y-127.0
X203.5Y-128.0
X204.5Y-123.0
X204.5Y-124.0
X204.5Y-125.0
X204.5Y-126.0
X204.5Y-127.0
X204.5Y-128.0
X204.955Y-132.0
X205.0Y-54.5
X206.0Y-117.0
X206.0Y-129.5
X206.0Y-130.5
X207.0Y-78.0
X207.0Y-81.0
X207.0Y-84.0
X207.0Y-87.0
X207.0Y-90.0
X207.0Y-93.0
X207.0Y-96.0
X207.0Y-99.0
X207.0Y-102.0
X207.0Y-105.0
X207.0Y-108.0
X207.0Y-111.0
X207.0Y-129.5
X207.0Y-133.0
X207.0Y-135.0
X207.0Y-137.0
X208.0Y-54.5
X208.385Y-135.685
X209.0Y-119.0
X209.16Y-131.975
X209.655Y-135.685
X210.0Y-75.0
X210.0Y-78.0
X210.0Y-81.0
X210.0Y-84.0
X210.0Y-87.0
X210.0Y-93.0
X210.0Y-96.0
X210.0Y-102.0
X210.0Y-108.0
X210.0Y-111.0
X210.925Y-135.685
X211.0Y-54.5
X212.0Y-119.0
X212.16Y-132.0
X213.0Y-75.0
X213.0Y-81.0
X213.0Y-84.0
X213.0Y-90.0
X213.0Y-93.0
X213.0Y-96.0
X213.0Y-102.0
X213.0Y-105.0
X213.0Y-108.0
X213.0Y-111.0
X214.0Y-54.5
X214.0Y-133.0
X214.0Y-135.0
X214.0Y-137.0
X215.0Y-119.0
X215.17Y-135.685
X215.5Y-114.0
X215.725Y-132.0
X216.0Y-84.0
X216.0Y-90.0
X216.0Y-93.0
X216.0Y-96.0
X216.0Y-99.0
X216.0Y-102.0
X216.0Y-105.0
X216.0Y-108.0
X216.0Y-111.0
X216.182Y-114.5
X216.44Y-135.685
X216.5Y-124.5
X216.5Y-125.5
X216.5Y-126.5
X216.5Y-128.2
X216.5Y-129.0
X217.0Y-54.5
X217.0Y-57.0
X217.5Y-124.5
X217.5Y-125.5
X217.5Y-126.5
X217.5Y-127.5
X217.71Y-135.685
X218.0Y-119.0
X218.5Y-124.5
X218.5Y-125.5
X218.5Y-126.5
X218.725Y-132.0
X219.0Y-69.0
X219.0Y-72.0
X219.0Y-75.0
X219.0Y-93.0
X219.0Y-96.0
X219.0Y-108.0
X219.0Y-111.0
X220.0Y-54.5
X220.0Y-57.0
X220.0Y-137.0
X221.0Y-119.0
X221.0Y-131.0
X221.0Y-133.0
X221.0Y-135.0
X221.25Y-124.5
X221.25Y-125.5
X221.25Y-126.5
X221.25Y-127.5
X222.0Y-69.0
X222.0Y-75.0
X222.0Y-81.0
X222.0Y-93.0
X222.0Y-96.0
X222.0Y-104.0
X222.0Y-109.0
X222.055Y-135.685
X222.25Y-124.5
X222.25Y-125.5
X222.25Y-126.5
X222.89Y-132.0
X223.0Y-54.5
X223.0Y-57.0
X223.0Y-73.0
X223.0Y-129.0
X223.25Y-124.5
X223.25Y-125.5
X223.325Y-135.685
X224.0Y-77.0
X224.0Y-119.0
X224.25Y-124.5
X224.595Y-135.685
X225.0Y-69.0
X225.0Y-81.0
X225.0Y-84.0
X225.0Y-93.0
X225.0Y-96.0
X225.0Y-109.0
X225.0Y-112.0
X225.0Y-127.0
X225.0Y-130.0
X225.5Y-124.5
X225.89Y-132.0
X226.0Y-54.5
X226.0Y-57.0
X226.0Y-73.0
X226.0Y-77.525
X226.5Y-124.5
X227.0Y-104.0
X227.0Y-119.0
X227.0Y-139.0
X227.0Y-142.0
X227.0Y-145.0
X227.5Y-124.5
X228.0Y-69.0
X228.0Y-81.0
X228.0Y-84.0
X228.0Y-106.0
X228.0Y-109.0
X228.0Y-112.0
X228.0Y-142.0
X228.0Y-143.0
X228.0Y-144.0
X228.0Y-145.0
X229.0Y-54.5
X229.0Y-57.0
X229.0Y-142.0
X229.0Y-143.0
X229.0Y-144.0
X229.0Y-145.0
X229.25Y-124.75
X229.5Y-90.375
X230.0Y-142.0
X230.0Y-143.0
X230.0Y-144.0
X230.0Y-145.0
X230.5Y-119.0
X231.0Y-84.0
X231.0Y-109.0
X231.0Y-142.0
X231.0Y-143.0
X231.0Y-144.0
X231.0Y-145.0
X231.05Y-119.625
X231.112Y-70.812
X231.665Y-120.137
X232.0Y-54.5
X232.0Y-57.0
X232.0Y-125.0
X232.25Y-96.225
X233.0Y-91.0
X233.612Y-81.537
X233.7Y-70.862
X234.0Y-90.0
X234.0Y-109.0
X235.0Y-54.5
X235.0Y-57.0
X235.0Y-65.0
X235.05Y-90.0
X235.5Y-118.125
X235.912Y-75.237
X236.0Y-90.0
X237.0Y-72.0
X237.0Y-75.0
X237.0Y-78.0
X237.0Y-103.0
X237.0Y-109.0
X237.0Y-112.0
X237.0Y-115.0
X237.0Y-136.0
X237.0Y-139.0
X237.0Y-142.0
X237.0Y-145.0
X237.25Y-133.0
X237.849Y-112.428
X238.0Y-54.5
X238.0Y-57.0
X238.0Y-65.0
X238.0Y-90.0
X238.0Y-120.075
X238.55Y-112.814
X238.75Y-131.75
X238.75Y-133.0
X239.0Y-97.5
X239.375Y-113.0
X240.0Y-72.0
X240.0Y-75.0
X240.0Y-78.0
X240.0Y-136.0
X240.0Y-139.0
X240.0Y-142.0
X240.0Y-145.0
X240.25Y-130.5
X240.25Y-131.75
X240.25Y-133.0
X241.0Y-54.5
X241.0Y-57.5
X241.0Y-60.5
X241.192Y-115.192
X241.462Y-124.0
X241.5Y-101.0
X241.5Y-129.25
X241.5Y-130.5
X241.5Y-131.75
X241.5Y-133.0
X242.0Y-73.0
X242.0Y-76.0
X242.75Y-129.25
X242.75Y-130.5
X242.75Y-131.75
X242.75Y-133.0
X243.0Y-118.0
X243.0Y-136.0
X243.0Y-139.0
X243.501Y-107.001
X243.56Y-95.075
X243.56Y-96.345
X244.0Y-54.5
X244.0Y-57.5
X244.0Y-60.5
X244.0Y-63.5
X244.0Y-67.0
X244.0Y-70.0
X244.0Y-129.25
X244.0Y-130.5
X244.0Y-131.75
X244.0Y-133.0
X244.0Y-134.25
X244.126Y-106.376
X244.81Y-100.65
X244.827Y-105.991
X245.0Y-85.5
X245.5Y-99.0
X245.627Y-106.025
X246.0Y-88.0
X246.0Y-91.0
X246.0Y-109.0
X246.0Y-112.0
X246.0Y-115.0
X246.0Y-118.0
X246.066Y-84.75
X246.066Y-86.25
X246.5Y-74.975
X247.0Y-54.5
X247.0Y-57.5
X247.0Y-63.5
X247.0Y-67.0
X247.0Y-70.0
X247.0Y-73.0
X247.0Y-99.0
X248.4Y-114.86
X249.0Y-88.0
X249.0Y-91.0
X249.0Y-94.0
X249.0Y-97.0
X249.0Y-121.0
X249.0Y-124.0
X249.0Y-127.0
X249.0Y-130.0
X249.0Y-145.0
X250.0Y-54.5
X250.0Y-57.5
X250.0Y-60.5
X250.0Y-63.5
X250.0Y-105.0
X250.6Y-114.86
X251.5Y-75.0
X252.0Y-88.0
X252.0Y-94.0
X252.0Y-97.0
X252.0Y-121.0
X252.0Y-124.0
X252.0Y-127.0
X252.0Y-130.0
X252.0Y-133.0
X252.0Y-136.0
X252.0Y-139.0
X252.0Y-145.0
X252.5Y-111.155
X252.5Y-119.205
X253.0Y-54.5
X253.0Y-57.5
X253.0Y-60.5
X253.0Y-63.5
X253.0Y-67.5
X253.0Y-70.5
X253.0Y-73.0
X254.0Y-104.0
X254.325Y-125.545
X254.905Y-111.93
X254.905Y-112.73
X254.905Y-117.63
X254.905Y-118.43
X255.0Y-88.0
X255.0Y-94.0
X255.0Y-97.0
X255.0Y-103.0
X255.0Y-121.0
X255.0Y-127.0
X255.0Y-130.0
X255.0Y-133.0
X255.0Y-136.0
X255.0Y-139.0
X255.0Y-142.0
X255.0Y-145.0
X256.0Y-60.5
X256.0Y-63.5
X256.0Y-67.5
X256.0Y-70.5
X256.275Y-123.0
X256.5Y-74.95
X258.0Y-88.0
X258.0Y-91.0
X258.0Y-94.0
X258.0Y-97.0
X258.0Y-109.0
X258.0Y-121.0
X258.0Y-124.0
X258.0Y-127.0
X258.0Y-130.0
X258.0Y-133.0
X258.0Y-136.0
X258.0Y-139.0
X259.0Y-63.5
X259.0Y-73.0
X260.725Y-123.0
X260.725Y-127.0
X260.725Y-129.5
X261.0Y-62.0
X261.0Y-65.0
X261.0Y-68.0
X261.0Y-71.0
X261.0Y-74.0
X261.0Y-85.0
X261.0Y-88.0
X261.0Y-91.0
X261.0Y-94.0
X261.0Y-97.0
X261.0Y-109.0
X261.0Y-112.0
X261.0Y-115.0
X261.0Y-118.0
X261.0Y-121.0
X261.0Y-133.0
X261.0Y-136.0
X261.0Y-139.0
X261.32Y-83.15
X261.32Y-100.65
X261.5Y-76.5
X261.5Y-78.5
X261.5Y-80.52
T3
X170.1Y-143.0
X170.297Y-57.197
X170.803Y-141.303
X170.803Y-144.697
X171.0Y-55.5
X171.0Y-58.894
X172.5Y-140.6
X172.5Y-145.4
X172.697Y-54.797
X172.697Y-59.597
X174.197Y-141.303
X174.197Y-144.697
X174.394Y-55.5
X174.394Y-58.894
X174.9Y-143.0
X175.097Y-57.197
X255.903Y-57.197
X255.903Y-143.0
X256.606Y-55.5
X256.606Y-58.894
X256.606Y-141.303
X256.606Y-144.697
X258.303Y-54.797
X258.303Y-59.597
X258.303Y-140.6
X258.303Y-145.4
X260.0Y-55.5
X260.0Y-58.894
X260.0Y-141.303
X260.0Y-144.697
X260.703Y-57.197
X260.703Y-143.0
T5
X233.14Y-126.61
X233.14Y-129.15
X233.14Y-131.69
X233.14Y-134.23
X233.14Y-136.77
X233.14Y-139.31
X233.14Y-141.85
X233.14Y-144.39
X236.92Y-126.38
X236.92Y-134.0
X239.46Y-126.38
X239.46Y-134.0
X242.0Y-126.38
X242.0Y-134.0
X245.84Y-126.61
X245.84Y-129.15
X245.84Y-131.69
X245.84Y-134.23
X245.84Y-136.77
X245.84Y-139.31
X245.84Y-141.85
X245.84Y-144.39
T6
X208.5Y-90.9
X208.5Y-98.5
X208.5Y-106.0
X208.5Y-113.5
X211.0Y-90.9
X211.0Y-98.5
X211.0Y-106.0
X211.0Y-113.5
X213.5Y-90.9
X213.5Y-98.5
X213.5Y-106.0
X213.5Y-113.5
X214.0Y-71.0
X214.0Y-78.0
X216.5Y-71.0
X216.5Y-78.0
X219.0Y-71.0
X219.0Y-78.0
X219.9Y-113.4
X220.0Y-91.0
X220.0Y-98.4
X220.0Y-106.0
X221.5Y-71.0
X221.5Y-78.0
X222.4Y-113.4
X222.5Y-91.0
X222.5Y-98.4
X222.5Y-106.0
X224.9Y-113.4
X225.0Y-91.0
X225.0Y-98.4
X225.0Y-106.0
X227.5Y-91.0
X227.5Y-98.4
X231.25Y-106.0
X231.339Y-113.4
X233.75Y-106.0
X233.839Y-113.4
X236.25Y-106.0
X236.339Y-113.4
X242.375Y-65.5
X242.375Y-68.0
X242.375Y-70.5
X250.175Y-65.5
X250.175Y-68.0
X250.175Y-70.5
X250.34Y-131.61
X250.34Y-134.11
X250.34Y-136.61
X250.34Y-139.11
X252.5Y-105.5
X255.0Y-105.5
X257.5Y-105.5
X257.975Y-65.5
X257.975Y-68.0
X257.975Y-70.5
X260.0Y-105.5
T7
X198.05Y-88.45
X198.05Y-100.45
X198.05Y-105.4
X198.05Y-117.4
X198.05Y-122.35
X198.05Y-134.35
X198.1Y-71.9
X198.1Y-83.9
X206.971Y-59.57
X209.511Y-59.57
X211.34Y-85.58
X212.051Y-59.57
X213.88Y-85.58
X216.42Y-85.58
X218.96Y-85.58
X219.239Y-59.57
X221.5Y-85.58
X221.779Y-59.57
X224.04Y-85.58
X224.319Y-59.57
X226.58Y-85.58
X227.0Y-57.0
X227.0Y-59.5
X229.12Y-85.58
X231.482Y-59.57
X234.022Y-59.57
X236.562Y-59.57
T8
X199.85Y-143.525
X202.39Y-143.525
X206.85Y-143.525
X209.39Y-143.525
X213.89Y-143.525
X216.43Y-143.525
X220.85Y-143.525
X223.39Y-143.525
T9
X185.8Y-100.5
X185.8Y-117.45
X185.8Y-134.4
X185.85Y-83.95
X185.85Y-88.45
X185.85Y-105.4
X185.85Y-122.35
X185.9Y-71.9
X200.0Y-94.5
X200.0Y-111.45
X200.0Y-128.4
X200.05Y-77.95
T10
X179.0Y-73.25
X179.0Y-78.75
X179.0Y-89.75
X179.0Y-95.25
X179.0Y-106.75
X179.0Y-112.25
X179.0Y-123.75
X179.0Y-129.25
X182.25Y-63.5
X187.75Y-63.5
X195.25Y-63.5
X200.75Y-63.5
T11
X172.5Y-143.0
X172.697Y-57.197
X258.303Y-57.197
X258.303Y-143.0
T4
G00X255.27Y-110.86
M15
G01X256.37Y-110.86
M16
G05
G00X255.27Y-119.5
M15
G01X256.37Y-119.5
M16
G05
G00X259.7Y-110.86
M15
G01X260.3Y-110.86
M16
G05
G00X259.7Y-119.5
M15
G01X260.3Y-119.5
M16
G05
M30
