G04 #@! TF.GenerationSoftware,KiCad,Pcbnew,10.0.5*
G04 #@! TF.CreationDate,2026-09-06T19:49:15+07:00*
G04 #@! TF.ProjectId,Nailem,4e61696c-656d-42e6-9b69-6361645f7063,rev?*
G04 #@! TF.SameCoordinates,Original*
G04 #@! TF.FileFunction,Profile,NP*
%FSLAX46Y46*%
G04 Gerber Fmt 4.6, Leading zero omitted, Abs format (unit mm)*
G04 Created by KiCad (PCBNEW 10.0.5) date 2026-09-06 19:49:15*
%MOMM*%
%LPD*%
G01*
G04 APERTURE LIST*
G04 #@! TA.AperFunction,Profile*
%ADD10C,0.050000*%
G04 #@! TD*
G04 #@! TA.AperFunction,Profile*
%ADD11C,0.120000*%
G04 #@! TD*
G04 APERTURE END LIST*
D10*
X263000000Y-145000000D02*
G75*
G02*
X260500000Y-147500000I-2500000J0D01*
G01*
X260500000Y-52500000D02*
G75*
G02*
X263000000Y-55000000I0J-2500000D01*
G01*
X170500000Y-147500000D02*
G75*
G02*
X168000000Y-145000000I0J2500000D01*
G01*
X168000000Y-55000000D02*
G75*
G02*
X170500000Y-52500000I2500000J0D01*
G01*
X263000000Y-55000000D02*
X263000000Y-145000000D01*
X260500000Y-147500000D02*
X170500000Y-147500000D01*
X168000000Y-145000000D02*
X168000000Y-55000000D01*
X170500000Y-52500000D02*
X260500000Y-52500000D01*
G04 #@! TO.C,D12*
D11*
X184700000Y-144000000D02*
X184700000Y-144700353D01*
X184700000Y-144000000D02*
X184700000Y-143299647D01*
X183000000Y-145500000D02*
X183900353Y-145500000D01*
X183000000Y-145500000D02*
X182099647Y-145500000D01*
X183000000Y-142500000D02*
X183900353Y-142500000D01*
X183000000Y-142500000D02*
X182099647Y-142500000D01*
X181300000Y-144000000D02*
X181300000Y-144700353D01*
X181300000Y-144000000D02*
X181300000Y-143299647D01*
X184743934Y-144856655D02*
G75*
G02*
X184700000Y-144700353I256058J156299D01*
G01*
X184743934Y-144856655D02*
G75*
G02*
X184056655Y-145543934I-426776J-260503D01*
G01*
X184700000Y-143299647D02*
G75*
G02*
X184743934Y-143143345I299992J3D01*
G01*
X184056655Y-142456066D02*
G75*
G02*
X184743934Y-143143345I260503J-426776D01*
G01*
X184056655Y-142456066D02*
G75*
G02*
X183900353Y-142500000I-156299J256058D01*
G01*
X183900353Y-145500000D02*
G75*
G02*
X184056655Y-145543934I3J-299992D01*
G01*
X182099647Y-142500000D02*
G75*
G02*
X181943344Y-142456067I3J300020D01*
G01*
X181943345Y-145543934D02*
G75*
G02*
X182099647Y-145500024I156255J-256066D01*
G01*
X181943345Y-145543934D02*
G75*
G02*
X181256066Y-144856655I-260505J426774D01*
G01*
X181300000Y-144700353D02*
G75*
G02*
X181256065Y-144856654I-299680J-87D01*
G01*
X181256066Y-143143345D02*
G75*
G02*
X181943345Y-142456066I426774J260505D01*
G01*
X181256066Y-143143345D02*
G75*
G02*
X181299976Y-143299647I-256066J-156255D01*
G01*
G04 #@! TO.C,D11*
X192700000Y-144000000D02*
X192700000Y-144700353D01*
X192700000Y-144000000D02*
X192700000Y-143299647D01*
X191000000Y-145500000D02*
X191900353Y-145500000D01*
X191000000Y-145500000D02*
X190099647Y-145500000D01*
X191000000Y-142500000D02*
X191900353Y-142500000D01*
X191000000Y-142500000D02*
X190099647Y-142500000D01*
X189300000Y-144000000D02*
X189300000Y-144700353D01*
X189300000Y-144000000D02*
X189300000Y-143299647D01*
X192743934Y-144856655D02*
G75*
G02*
X192700000Y-144700353I256058J156299D01*
G01*
X192743934Y-144856655D02*
G75*
G02*
X192056655Y-145543934I-426776J-260503D01*
G01*
X192700000Y-143299647D02*
G75*
G02*
X192743934Y-143143345I299992J3D01*
G01*
X192056655Y-142456066D02*
G75*
G02*
X192743934Y-143143345I260503J-426776D01*
G01*
X192056655Y-142456066D02*
G75*
G02*
X191900353Y-142500000I-156299J256058D01*
G01*
X191900353Y-145500000D02*
G75*
G02*
X192056655Y-145543934I3J-299992D01*
G01*
X190099647Y-142500000D02*
G75*
G02*
X189943344Y-142456067I3J300020D01*
G01*
X189943345Y-145543934D02*
G75*
G02*
X190099647Y-145500024I156255J-256066D01*
G01*
X189943345Y-145543934D02*
G75*
G02*
X189256066Y-144856655I-260505J426774D01*
G01*
X189300000Y-144700353D02*
G75*
G02*
X189256065Y-144856654I-299680J-87D01*
G01*
X189256066Y-143143345D02*
G75*
G02*
X189943345Y-142456066I426774J260505D01*
G01*
X189256066Y-143143345D02*
G75*
G02*
X189299976Y-143299647I-256066J-156255D01*
G01*
G04 #@! TD*
M02*
