%TF.GenerationSoftware,KiCad,Pcbnew,10.0.5*%
%TF.CreationDate,2026-09-06T18:50:30+07:00*%
%TF.ProjectId,Nailem,4e61696c-656d-42e6-9b69-6361645f7063,rev?*%
%TF.SameCoordinates,Original*%
%TF.FileFunction,Paste,Bot*%
%TF.FilePolarity,Positive*%
%FSLAX46Y46*%
G04 Gerber Fmt 4.6, Leading zero omitted, Abs format (unit mm)*
G04 Created by KiCad (PCBNEW 10.0.5) date 2026-09-06 18:50:30*
%MOMM*%
%LPD*%
G01*
G04 APERTURE LIST*
G04 Aperture macros list*
%AMRoundRect*
0 Rectangle with rounded corners*
0 $1 Rounding radius*
0 $2 $3 $4 $5 $6 $7 $8 $9 X,Y pos of 4 corners*
0 Add a 4 corners polygon primitive as box body*
4,1,4,$2,$3,$4,$5,$6,$7,$8,$9,$2,$3,0*
0 Add four circle primitives for the rounded corners*
1,1,$1+$1,$2,$3*
1,1,$1+$1,$4,$5*
1,1,$1+$1,$6,$7*
1,1,$1+$1,$8,$9*
0 Add four rect primitives between the rounded corners*
20,1,$1+$1,$2,$3,$4,$5,0*
20,1,$1+$1,$4,$5,$6,$7,0*
20,1,$1+$1,$6,$7,$8,$9,0*
20,1,$1+$1,$8,$9,$2,$3,0*%
%AMOutline4P*
0 Free polygon, 4 corners , with rotation*
0 The origin of the aperture is its center*
0 number of corners: always 4*
0 $1 to $8 corner X, Y*
0 $9 Rotation angle, in degrees counterclockwise*
0 create outline with 4 corners*
4,1,4,$1,$2,$3,$4,$5,$6,$7,$8,$1,$2,$9*%
G04 Aperture macros list end*
%ADD10RoundRect,0.125000X0.125000X-0.325000X0.125000X0.325000X-0.125000X0.325000X-0.125000X-0.325000X0*%
%ADD11RoundRect,0.087500X0.212500X-0.087500X0.212500X0.087500X-0.212500X0.087500X-0.212500X-0.087500X0*%
%ADD12RoundRect,0.187500X0.187500X-0.187500X0.187500X0.187500X-0.187500X0.187500X-0.187500X-0.187500X0*%
%ADD13RoundRect,0.152500X0.152500X-0.262500X0.152500X0.262500X-0.152500X0.262500X-0.152500X-0.262500X0*%
%ADD14Outline4P,-1.800000X-1.150000X1.800000X-0.550000X1.800000X0.550000X-1.800000X1.150000X90.000000*%
%ADD15Outline4P,-1.800000X-1.150000X1.800000X-0.550000X1.800000X0.550000X-1.800000X1.150000X270.000000*%
%ADD16RoundRect,0.250000X-0.325000X-0.450000X0.325000X-0.450000X0.325000X0.450000X-0.325000X0.450000X0*%
%ADD17RoundRect,0.250000X0.337500X0.475000X-0.337500X0.475000X-0.337500X-0.475000X0.337500X-0.475000X0*%
%ADD18RoundRect,0.250000X0.450000X-0.325000X0.450000X0.325000X-0.450000X0.325000X-0.450000X-0.325000X0*%
%ADD19RoundRect,0.250000X-0.450000X0.325000X-0.450000X-0.325000X0.450000X-0.325000X0.450000X0.325000X0*%
%ADD20RoundRect,0.250000X0.325000X0.450000X-0.325000X0.450000X-0.325000X-0.450000X0.325000X-0.450000X0*%
%ADD21RoundRect,0.250000X-0.475000X0.337500X-0.475000X-0.337500X0.475000X-0.337500X0.475000X0.337500X0*%
%ADD22RoundRect,0.200000X0.200000X-0.250000X0.200000X0.250000X-0.200000X0.250000X-0.200000X-0.250000X0*%
%ADD23RoundRect,0.250000X0.475000X-0.337500X0.475000X0.337500X-0.475000X0.337500X-0.475000X-0.337500X0*%
%ADD24RoundRect,0.205000X0.470000X0.205000X-0.470000X0.205000X-0.470000X-0.205000X0.470000X-0.205000X0*%
G04 APERTURE END LIST*
D10*
%TO.C,Q7*%
X210930000Y-140345000D03*
X210230000Y-140345000D03*
X209530000Y-140345000D03*
X208830000Y-140345000D03*
D11*
X211890000Y-140070000D03*
D12*
X211715000Y-138525000D03*
X210765000Y-138525000D03*
X209815000Y-138525000D03*
X208865000Y-138525000D03*
X211715000Y-137500000D03*
X210765000Y-137500000D03*
X209815000Y-137500000D03*
X208865000Y-137500000D03*
D13*
X212195000Y-141365000D03*
X210925000Y-141369800D03*
X209655000Y-141369800D03*
X208385000Y-141369800D03*
X208385000Y-135685000D03*
X209655000Y-135685000D03*
X210925000Y-135685000D03*
X212195000Y-135685000D03*
%TD*%
D10*
%TO.C,Q8*%
X204005000Y-140345000D03*
X203305000Y-140345000D03*
X202605000Y-140345000D03*
X201905000Y-140345000D03*
D11*
X204965000Y-140070000D03*
D12*
X204790000Y-138525000D03*
X203840000Y-138525000D03*
X202890000Y-138525000D03*
X201940000Y-138525000D03*
X204790000Y-137500000D03*
X203840000Y-137500000D03*
X202890000Y-137500000D03*
X201940000Y-137500000D03*
D13*
X205270000Y-141365000D03*
X204000000Y-141369800D03*
X202730000Y-141369800D03*
X201460000Y-141369800D03*
X201460000Y-135685000D03*
X202730000Y-135685000D03*
X204000000Y-135685000D03*
X205270000Y-135685000D03*
%TD*%
D10*
%TO.C,Q5*%
X224600000Y-140345000D03*
X223900000Y-140345000D03*
X223200000Y-140345000D03*
X222500000Y-140345000D03*
D11*
X225560000Y-140070000D03*
D12*
X225385000Y-138525000D03*
X224435000Y-138525000D03*
X223485000Y-138525000D03*
X222535000Y-138525000D03*
X225385000Y-137500000D03*
X224435000Y-137500000D03*
X223485000Y-137500000D03*
X222535000Y-137500000D03*
D13*
X225865000Y-141365000D03*
X224595000Y-141369800D03*
X223325000Y-141369800D03*
X222055000Y-141369800D03*
X222055000Y-135685000D03*
X223325000Y-135685000D03*
X224595000Y-135685000D03*
X225865000Y-135685000D03*
%TD*%
D10*
%TO.C,Q6*%
X217715000Y-140345000D03*
X217015000Y-140345000D03*
X216315000Y-140345000D03*
X215615000Y-140345000D03*
D11*
X218675000Y-140070000D03*
D12*
X218500000Y-138525000D03*
X217550000Y-138525000D03*
X216600000Y-138525000D03*
X215650000Y-138525000D03*
X218500000Y-137500000D03*
X217550000Y-137500000D03*
X216600000Y-137500000D03*
X215650000Y-137500000D03*
D13*
X218980000Y-141365000D03*
X217710000Y-141369800D03*
X216440000Y-141369800D03*
X215170000Y-141369800D03*
X215170000Y-135685000D03*
X216440000Y-135685000D03*
X217710000Y-135685000D03*
X218980000Y-135685000D03*
%TD*%
D14*
%TO.C,D10*%
X196000000Y-80900000D03*
D15*
X196000000Y-75100000D03*
%TD*%
D14*
%TO.C,D3*%
X196000000Y-131400000D03*
D15*
X196000000Y-125600000D03*
%TD*%
D14*
%TO.C,D6*%
X196000000Y-114400000D03*
D15*
X196000000Y-108600000D03*
%TD*%
D14*
%TO.C,D8*%
X196000000Y-97400000D03*
D15*
X196000000Y-91600000D03*
%TD*%
D16*
%TO.C,R4*%
X254337500Y-123045000D03*
X256387500Y-123045000D03*
%TD*%
D17*
%TO.C,C7*%
X256400000Y-125545000D03*
X254325000Y-125545000D03*
%TD*%
D18*
%TO.C,R25*%
X209160000Y-134025000D03*
X209160000Y-131975000D03*
%TD*%
%TO.C,R27*%
X201955000Y-132000000D03*
X201955000Y-134050000D03*
%TD*%
D19*
%TO.C,R26*%
X204955000Y-132000000D03*
X204955000Y-134050000D03*
%TD*%
D18*
%TO.C,R23*%
X215725000Y-134050000D03*
X215725000Y-132000000D03*
%TD*%
D19*
%TO.C,R24*%
X212160000Y-132000000D03*
X212160000Y-134050000D03*
%TD*%
%TO.C,R22*%
X218725000Y-132000000D03*
X218725000Y-134050000D03*
%TD*%
D18*
%TO.C,R20*%
X222890000Y-134050000D03*
X222890000Y-132000000D03*
%TD*%
D19*
%TO.C,R21*%
X225890000Y-132000000D03*
X225890000Y-134050000D03*
%TD*%
D20*
%TO.C,R42*%
X247525000Y-94000000D03*
X245475000Y-94000000D03*
%TD*%
%TO.C,R41*%
X247550000Y-97000000D03*
X245500000Y-97000000D03*
%TD*%
D18*
%TO.C,R29*%
X232250000Y-98275000D03*
X232250000Y-96225000D03*
%TD*%
D21*
%TO.C,C12*%
X243400000Y-142262500D03*
X243400000Y-144337500D03*
%TD*%
D18*
%TO.C,R28*%
X229750000Y-98275000D03*
X229750000Y-96225000D03*
%TD*%
D16*
%TO.C,R30*%
X208875000Y-88600000D03*
X210925000Y-88600000D03*
%TD*%
D20*
%TO.C,R7*%
X192550000Y-133000000D03*
X190500000Y-133000000D03*
%TD*%
D16*
%TO.C,R6*%
X190450000Y-130500000D03*
X192500000Y-130500000D03*
%TD*%
D22*
%TO.C,Q1*%
X192450000Y-125500000D03*
X190550000Y-125500000D03*
X191500000Y-123500000D03*
%TD*%
D23*
%TO.C,C9*%
X183500000Y-139775000D03*
X183500000Y-137700000D03*
%TD*%
D22*
%TO.C,Q3*%
X192450000Y-91500000D03*
X190550000Y-91500000D03*
X191500000Y-89500000D03*
%TD*%
%TO.C,Q4*%
X192400000Y-72500000D03*
X190500000Y-72500000D03*
X191450000Y-70500000D03*
%TD*%
D24*
%TO.C,D12*%
X185725000Y-144750000D03*
X185725000Y-143250000D03*
X180275000Y-143250000D03*
X180275000Y-144750000D03*
%TD*%
D16*
%TO.C,R13*%
X190475000Y-96500000D03*
X192525000Y-96500000D03*
%TD*%
D20*
%TO.C,R14*%
X192550000Y-80000000D03*
X190500000Y-80000000D03*
%TD*%
D16*
%TO.C,R15*%
X190475000Y-75000000D03*
X192525000Y-75000000D03*
%TD*%
D24*
%TO.C,D11*%
X193725000Y-144750000D03*
X193725000Y-143250000D03*
X188275000Y-143250000D03*
X188275000Y-144750000D03*
%TD*%
D23*
%TO.C,C8*%
X186000000Y-139775000D03*
X186000000Y-137700000D03*
%TD*%
D16*
%TO.C,R12*%
X190475000Y-94000000D03*
X192525000Y-94000000D03*
%TD*%
%TO.C,R5*%
X190475000Y-128000000D03*
X192525000Y-128000000D03*
%TD*%
%TO.C,R16*%
X190450000Y-77500000D03*
X192500000Y-77500000D03*
%TD*%
D20*
%TO.C,R11*%
X192525000Y-99000000D03*
X190475000Y-99000000D03*
%TD*%
D16*
%TO.C,R9*%
X190475000Y-111000000D03*
X192525000Y-111000000D03*
%TD*%
D20*
%TO.C,R8*%
X192525000Y-116000000D03*
X190475000Y-116000000D03*
%TD*%
D19*
%TO.C,R19*%
X189000000Y-137712500D03*
X189000000Y-139762500D03*
%TD*%
D22*
%TO.C,Q2*%
X192450000Y-108500000D03*
X190550000Y-108500000D03*
X191500000Y-106500000D03*
%TD*%
D16*
%TO.C,R10*%
X190450000Y-113500000D03*
X192500000Y-113500000D03*
%TD*%
M02*
