M48
; DRILL file KiCad 10.0.5 date 2026-09-06T18:50:30
; FORMAT={-:-/ absolute / inch / decimal}
; #@! TF.CreationDate,2026-09-06T18:50:30+07:00
; #@! TF.GenerationSoftware,Kicad,Pcbnew,10.0.5
; #@! TF.FileFunction,Plated,1,2,PTH
FMAT,2
INCH
; #@! TA.AperFunction,Plated,PTH,ComponentDrill
T1C0.0079
; #@! TA.AperFunction,Plated,PTH,ViaDrill
T2C0.0118
; #@! TA.AperFunction,Plated,PTH,ComponentDrill
T3C0.0197
; #@! TA.AperFunction,Plated,PTH,ComponentDrill
T4C0.0236
; #@! TA.AperFunction,Plated,PTH,ComponentDrill
T5C0.0315
; #@! TA.AperFunction,Plated,PTH,ComponentDrill
T6C0.0374
; #@! TA.AperFunction,Plated,PTH,ComponentDrill
T7C0.0394
; #@! TA.AperFunction,Plated,PTH,ComponentDrill
T8C0.0472
; #@! TA.AperFunction,Plated,PTH,ComponentDrill
T9C0.0512
; #@! TA.AperFunction,Plated,PTH,ComponentDrill
T10C0.0591
; #@! TA.AperFunction,Plated,PTH,ComponentDrill
T11C0.1260
%
G90
G05
T1
X9.9291Y-3.5315
X9.9291Y-3.5866
X9.9567Y-3.5039
X9.9567Y-3.5591
X9.9567Y-3.6142
X9.9843Y-3.5315
X9.9843Y-3.5866
X10.0118Y-3.5039
X10.0118Y-3.5591
X10.0118Y-3.6142
X10.0394Y-3.5315
X10.0394Y-3.5866
T2
X6.6929Y-2.4409
X6.6929Y-2.5591
X6.6929Y-2.6772
X6.6929Y-2.7953
X6.6929Y-2.9134
X6.6929Y-3.0315
X6.6929Y-3.1496
X6.6929Y-3.2677
X6.6929Y-3.3858
X6.6929Y-3.5039
X6.6929Y-3.622
X6.6929Y-3.7402
X6.6929Y-3.8583
X6.6929Y-3.9764
X6.6929Y-4.0945
X6.6929Y-4.2126
X6.6929Y-4.3307
X6.6929Y-4.4488
X6.6929Y-4.5669
X6.6929Y-4.685
X6.6929Y-4.8031
X6.6929Y-4.9213
X6.6929Y-5.0394
X6.6929Y-5.1575
X6.6929Y-5.2756
X6.6929Y-5.3937
X6.6929Y-5.5118
X6.811Y-2.4409
X6.811Y-2.5591
X6.811Y-2.6772
X6.811Y-2.7953
X6.811Y-2.9134
X6.811Y-3.0315
X6.811Y-3.1496
X6.811Y-3.2677
X6.811Y-3.3858
X6.811Y-3.5039
X6.811Y-3.622
X6.811Y-3.7402
X6.811Y-3.8583
X6.811Y-3.9764
X6.811Y-4.0945
X6.811Y-4.2126
X6.811Y-4.3307
X6.811Y-4.4488
X6.811Y-4.5669
X6.811Y-4.685
X6.811Y-4.8031
X6.811Y-4.9213
X6.811Y-5.0394
X6.811Y-5.1575
X6.811Y-5.2756
X6.811Y-5.3937
X6.9291Y-2.2047
X6.9291Y-2.3228
X6.9291Y-2.4409
X6.9291Y-2.5591
X6.9291Y-2.6772
X6.9291Y-2.7953
X6.9291Y-2.9134
X6.9291Y-3.0315
X6.9291Y-3.1496
X6.9291Y-3.2677
X6.9291Y-3.3858
X6.9291Y-3.5039
X6.9291Y-3.622
X6.9291Y-3.7402
X6.9291Y-3.8583
X6.9291Y-3.9764
X6.9291Y-4.0945
X6.9291Y-4.2126
X6.9291Y-4.3307
X6.9291Y-4.4488
X6.9291Y-4.5669
X6.9291Y-4.685
X6.9291Y-4.8031
X6.9291Y-4.9213
X6.9291Y-5.0394
X6.9291Y-5.1575
X6.9291Y-5.2756
X6.9291Y-5.3937
X6.9291Y-5.5118
X6.9291Y-5.6299
X6.9291Y-5.748
X7.0059Y-3.9764
X7.0059Y-5.315
X7.0069Y-3.3268
X7.0069Y-4.6457
X7.0079Y-2.1457
X7.0472Y-2.2047
X7.0472Y-2.3228
X7.0472Y-2.4409
X7.0472Y-2.5591
X7.0472Y-2.6772
X7.0472Y-2.7953
X7.0472Y-3.2677
X7.0472Y-3.3858
X7.0472Y-3.622
X7.0472Y-4.0945
X7.0472Y-4.5669
X7.0472Y-4.685
X7.0472Y-4.8031
X7.0472Y-4.9213
X7.0472Y-5.3937
X7.0472Y-5.5118
X7.0472Y-5.6299
X7.0472Y-5.748
X7.126Y-2.1457
X7.1654Y-2.2047
X7.1654Y-2.3228
X7.1654Y-2.5591
X7.1654Y-2.6772
X7.1654Y-2.7953
X7.1654Y-2.9134
X7.1654Y-3.0315
X7.1654Y-3.3858
X7.1654Y-3.5039
X7.1654Y-3.622
X7.1654Y-3.9764
X7.1654Y-4.0945
X7.1654Y-4.2126
X7.1654Y-4.3307
X7.1654Y-4.685
X7.1654Y-4.8031
X7.1654Y-4.9213
X7.1654Y-5.3937
X7.2244Y-5.4213
X7.2441Y-2.1457
X7.2835Y-2.2047
X7.2835Y-2.3228
X7.2835Y-2.4409
X7.2835Y-2.5591
X7.2835Y-2.6772
X7.312Y-5.6988
X7.3228Y-5.4213
X7.3425Y-3.8583
X7.3622Y-2.1457
X7.4016Y-2.2047
X7.4016Y-2.3228
X7.4016Y-2.6772
X7.4016Y-2.7953
X7.4016Y-2.9134
X7.4016Y-3.0315
X7.4016Y-3.1496
X7.4016Y-3.2677
X7.4016Y-3.3858
X7.4409Y-5.4218
X7.4803Y-2.1457
X7.499Y-2.8553
X7.499Y-2.9528
X7.499Y-3.6417
X7.499Y-3.8976
X7.499Y-4.2913
X7.499Y-4.3307
X7.499Y-4.3701
X7.499Y-4.5669
X7.499Y-4.9606
X7.499Y-5.0
X7.499Y-5.0394
X7.5Y-3.1496
X7.5Y-3.6024
X7.5Y-3.6811
X7.5Y-5.2362
X7.5197Y-2.2047
X7.5197Y-2.5591
X7.5197Y-2.6772
X7.5197Y-3.2677
X7.5197Y-4.0945
X7.5197Y-4.685
X7.5197Y-4.8031
X7.5797Y-3.8976
X7.5797Y-4.5669
X7.5807Y-3.1496
X7.5807Y-5.2362
X7.5984Y-2.1457
X7.627Y-5.6988
X7.6378Y-2.2047
X7.6378Y-2.4409
X7.6378Y-2.5591
X7.6378Y-2.6772
X7.6378Y-2.9134
X7.6378Y-3.0315
X7.6378Y-3.1496
X7.6378Y-3.3858
X7.6378Y-4.0945
X7.6378Y-4.3307
X7.6378Y-4.4488
X7.6378Y-4.5669
X7.6378Y-4.8031
X7.6378Y-4.9213
X7.6378Y-5.0394
X7.6378Y-5.1575
X7.6378Y-5.3937
X7.6378Y-5.5118
X7.7165Y-2.1457
X7.7559Y-2.2047
X7.7559Y-2.4409
X7.7559Y-2.5591
X7.7559Y-2.6772
X7.7559Y-5.3937
X7.7559Y-5.5118
X7.8346Y-2.1457
X7.874Y-2.2047
X7.874Y-2.6772
X7.874Y-2.7953
X7.874Y-2.9134
X7.874Y-3.622
X7.874Y-3.8583
X7.874Y-3.9764
X7.874Y-4.2126
X7.874Y-4.5669
X7.874Y-5.1575
X7.874Y-5.2756
X7.874Y-5.3937
X7.9331Y-4.8425
X7.9331Y-4.8819
X7.9331Y-4.9213
X7.9331Y-4.9606
X7.9331Y-5.0
X7.9331Y-5.0394
X7.9528Y-2.1457
X7.9724Y-4.8425
X7.9724Y-4.8819
X7.9724Y-4.9213
X7.9724Y-4.9606
X7.9724Y-5.0
X7.9724Y-5.0394
X7.9921Y-2.2047
X7.9921Y-2.6772
X8.0118Y-4.8425
X8.0118Y-4.8819
X8.0118Y-4.9213
X8.0118Y-4.9606
X8.0118Y-5.0
X8.0118Y-5.0394
X8.0512Y-4.8425
X8.0512Y-4.8819
X8.0512Y-4.9213
X8.0512Y-4.9606
X8.0512Y-5.0
X8.0512Y-5.0394
X8.0691Y-5.1969
X8.0709Y-2.1457
X8.1102Y-4.6063
X8.1102Y-5.0984
X8.1102Y-5.1378
X8.1496Y-3.0709
X8.1496Y-3.189
X8.1496Y-3.3071
X8.1496Y-3.4252
X8.1496Y-3.5433
X8.1496Y-3.6614
X8.1496Y-3.7795
X8.1496Y-3.8976
X8.1496Y-4.0157
X8.1496Y-4.1339
X8.1496Y-4.252
X8.1496Y-4.3701
X8.1496Y-5.0984
X8.1496Y-5.2362
X8.1496Y-5.315
X8.1496Y-5.3937
X8.189Y-2.1457
X8.2041Y-5.3419
X8.2283Y-4.685
X8.2346Y-5.1959
X8.2541Y-5.3419
X8.2677Y-2.9528
X8.2677Y-3.0709
X8.2677Y-3.189
X8.2677Y-3.3071
X8.2677Y-3.4252
X8.2677Y-3.6614
X8.2677Y-3.7795
X8.2677Y-4.0157
X8.2677Y-4.252
X8.2677Y-4.3701
X8.3041Y-5.3419
X8.3071Y-2.1457
X8.3465Y-4.685
X8.3528Y-5.1969
X8.3858Y-2.9528
X8.3858Y-3.189
X8.3858Y-3.3071
X8.3858Y-3.5433
X8.3858Y-3.6614
X8.3858Y-3.7795
X8.3858Y-4.0157
X8.3858Y-4.1339
X8.3858Y-4.252
X8.3858Y-4.3701
X8.4252Y-2.1457
X8.4252Y-5.2362
X8.4252Y-5.315
X8.4252Y-5.3937
X8.4646Y-4.685
X8.4713Y-5.3419
X8.4843Y-4.4882
X8.4931Y-5.1969
X8.5039Y-3.3071
X8.5039Y-3.5433
X8.5039Y-3.6614
X8.5039Y-3.7795
X8.5039Y-3.8976
X8.5039Y-4.0157
X8.5039Y-4.1339
X8.5039Y-4.252
X8.5039Y-4.3701
X8.5111Y-4.5079
X8.5213Y-5.3419
X8.5236Y-4.9016
X8.5236Y-4.9409
X8.5236Y-4.9803
X8.5236Y-5.0472
X8.5236Y-5.0787
X8.5433Y-2.1457
X8.5433Y-2.2441
X8.563Y-4.9016
X8.563Y-4.9409
X8.563Y-4.9803
X8.563Y-5.0197
X8.5713Y-5.3419
X8.5827Y-4.685
X8.6024Y-4.9016
X8.6024Y-4.9409
X8.6024Y-4.9803
X8.6112Y-5.1969
X8.622Y-2.7165
X8.622Y-2.8346
X8.622Y-2.9528
X8.622Y-3.6614
X8.622Y-3.7795
X8.622Y-4.252
X8.622Y-4.3701
X8.6614Y-2.1457
X8.6614Y-2.2441
X8.6614Y-5.3937
X8.7008Y-4.685
X8.7008Y-5.1575
X8.7008Y-5.2362
X8.7008Y-5.315
X8.7106Y-4.9016
X8.7106Y-4.9409
X8.7106Y-4.9803
X8.7106Y-5.0197
X8.7402Y-2.7165
X8.7402Y-2.9528
X8.7402Y-3.189
X8.7402Y-3.6614
X8.7402Y-3.7795
X8.7402Y-4.0945
X8.7402Y-4.2913
X8.7423Y-5.3419
X8.75Y-4.9016
X8.75Y-4.9409
X8.75Y-4.9803
X8.7752Y-5.1969
X8.7795Y-2.1457
X8.7795Y-2.2441
X8.7795Y-2.874
X8.7795Y-5.0787
X8.7894Y-4.9016
X8.7894Y-4.9409
X8.7923Y-5.3419
X8.8189Y-3.0315
X8.8189Y-4.685
X8.8287Y-4.9016
X8.8423Y-5.3419
X8.8583Y-2.7165
X8.8583Y-3.189
X8.8583Y-3.3071
X8.8583Y-3.6614
X8.8583Y-3.7795
X8.8583Y-4.2913
X8.8583Y-4.4094
X8.8583Y-5.0
X8.8583Y-5.1181
X8.878Y-4.9016
X8.8933Y-5.1969
X8.8976Y-2.1457
X8.8976Y-2.2441
X8.8976Y-2.874
X8.8976Y-3.0522
X8.9173Y-4.9016
X8.937Y-4.0945
X8.937Y-4.685
X8.937Y-5.4724
X8.937Y-5.5906
X8.937Y-5.7087
X8.9567Y-4.9016
X8.9764Y-2.7165
X8.9764Y-3.189
X8.9764Y-3.3071
X8.9764Y-4.1732
X8.9764Y-4.2913
X8.9764Y-4.4094
X8.9764Y-5.5906
X8.9764Y-5.6299
X8.9764Y-5.6693
X8.9764Y-5.7087
X9.0157Y-2.1457
X9.0157Y-2.2441
X9.0157Y-5.5906
X9.0157Y-5.6299
X9.0157Y-5.6693
X9.0157Y-5.7087
X9.0256Y-4.9114
X9.0354Y-3.5581
X9.0551Y-5.5906
X9.0551Y-5.6299
X9.0551Y-5.6693
X9.0551Y-5.7087
X9.0748Y-4.685
X9.0945Y-3.3071
X9.0945Y-4.2913
X9.0945Y-5.5906
X9.0945Y-5.6299
X9.0945Y-5.6693
X9.0945Y-5.7087
X9.0965Y-4.7096
X9.0989Y-2.7879
X9.1207Y-4.7298
X9.1339Y-2.1457
X9.1339Y-2.2441
X9.1339Y-4.9213
X9.1437Y-3.7884
X9.1732Y-3.5827
X9.1973Y-3.2101
X9.2008Y-2.7899
X9.2126Y-3.5433
X9.2126Y-4.2913
X9.252Y-2.1457
X9.252Y-2.2441
X9.252Y-2.5591
X9.2539Y-3.5433
X9.2717Y-4.6506
X9.2879Y-2.9621
X9.2913Y-3.5433
X9.3307Y-2.8346
X9.3307Y-2.9528
X9.3307Y-3.0709
X9.3307Y-4.0551
X9.3307Y-4.2913
X9.3307Y-4.4094
X9.3307Y-4.5276
X9.3307Y-5.3543
X9.3307Y-5.4724
X9.3307Y-5.5906
X9.3307Y-5.7087
X9.3406Y-5.2362
X9.3641Y-4.4263
X9.3701Y-2.1457
X9.3701Y-2.2441
X9.3701Y-2.5591
X9.3701Y-3.5433
X9.3701Y-4.7274
X9.3917Y-4.4415
X9.3996Y-5.187
X9.3996Y-5.2362
X9.4094Y-3.8386
X9.4242Y-4.4488
X9.4488Y-2.8346
X9.4488Y-2.9528
X9.4488Y-3.0709
X9.4488Y-5.3543
X9.4488Y-5.4724
X9.4488Y-5.5906
X9.4488Y-5.7087
X9.4587Y-5.1378
X9.4587Y-5.187
X9.4587Y-5.2362
X9.4882Y-2.1457
X9.4882Y-2.2638
X9.4882Y-2.3819
X9.4957Y-4.5351
X9.5064Y-4.8819
X9.5079Y-3.9764
X9.5079Y-5.0886
X9.5079Y-5.1378
X9.5079Y-5.187
X9.5079Y-5.2362
X9.5276Y-2.874
X9.5276Y-2.9921
X9.5571Y-5.0886
X9.5571Y-5.1378
X9.5571Y-5.187
X9.5571Y-5.2362
X9.5669Y-4.6457
X9.5669Y-5.3543
X9.5669Y-5.4724
X9.5867Y-4.2126
X9.589Y-3.7431
X9.589Y-3.7931
X9.6063Y-2.1457
X9.6063Y-2.2638
X9.6063Y-2.3819
X9.6063Y-2.5
X9.6063Y-2.6378
X9.6063Y-2.7559
X9.6063Y-5.0886
X9.6063Y-5.1378
X9.6063Y-5.187
X9.6063Y-5.2362
X9.6063Y-5.2854
X9.6113Y-4.188
X9.6382Y-3.9626
X9.6389Y-4.1729
X9.6457Y-3.3661
X9.6654Y-3.8976
X9.6704Y-4.1742
X9.685Y-3.4646
X9.685Y-3.5827
X9.685Y-4.2913
X9.685Y-4.4094
X9.685Y-4.5276
X9.685Y-4.6457
X9.6876Y-3.3366
X9.6876Y-3.3957
X9.7047Y-2.9518
X9.7244Y-2.1457
X9.7244Y-2.2638
X9.7244Y-2.5
X9.7244Y-2.6378
X9.7244Y-2.7559
X9.7244Y-2.874
X9.7244Y-3.8976
X9.7795Y-4.522
X9.8031Y-3.4646
X9.8031Y-3.5827
X9.8031Y-3.7008
X9.8031Y-3.8189
X9.8031Y-4.7638
X9.8031Y-4.8819
X9.8031Y-5.0
X9.8031Y-5.1181
X9.8031Y-5.7087
X9.8425Y-2.1457
X9.8425Y-2.2638
X9.8425Y-2.3819
X9.8425Y-2.5
X9.8425Y-4.1339
X9.8661Y-4.522
X9.9016Y-2.9528
X9.9213Y-3.4646
X9.9213Y-3.7008
X9.9213Y-3.8189
X9.9213Y-4.7638
X9.9213Y-4.8819
X9.9213Y-5.0
X9.9213Y-5.1181
X9.9213Y-5.2362
X9.9213Y-5.3543
X9.9213Y-5.4724
X9.9213Y-5.7087
X9.9409Y-4.3762
X9.9409Y-4.6931
X9.9606Y-2.1457
X9.9606Y-2.2638
X9.9606Y-2.3819
X9.9606Y-2.5
X9.9606Y-2.6575
X9.9606Y-2.7756
X9.9606Y-2.874
X10.0Y-4.0945
X10.0128Y-4.9427
X10.0356Y-4.4067
X10.0356Y-4.4382
X10.0356Y-4.6311
X10.0356Y-4.6626
X10.0394Y-3.4646
X10.0394Y-3.7008
X10.0394Y-3.8189
X10.0394Y-4.0551
X10.0394Y-4.7638
X10.0394Y-5.0
X10.0394Y-5.1181
X10.0394Y-5.2362
X10.0394Y-5.3543
X10.0394Y-5.4724
X10.0394Y-5.5906
X10.0394Y-5.7087
X10.0787Y-2.3819
X10.0787Y-2.5
X10.0787Y-2.6575
X10.0787Y-2.7756
X10.0896Y-4.8425
X10.0984Y-2.9508
X10.1575Y-3.4646
X10.1575Y-3.5827
X10.1575Y-3.7008
X10.1575Y-3.8189
X10.1575Y-4.2913
X10.1575Y-4.7638
X10.1575Y-4.8819
X10.1575Y-5.0
X10.1575Y-5.1181
X10.1575Y-5.2362
X10.1575Y-5.3543
X10.1575Y-5.4724
X10.1969Y-2.5
X10.1969Y-2.874
X10.2648Y-4.8425
X10.2648Y-5.0
X10.2648Y-5.0984
X10.2756Y-2.4409
X10.2756Y-2.5591
X10.2756Y-2.6772
X10.2756Y-2.7953
X10.2756Y-2.9134
X10.2756Y-3.3465
X10.2756Y-3.4646
X10.2756Y-3.5827
X10.2756Y-3.7008
X10.2756Y-3.8189
X10.2756Y-4.2913
X10.2756Y-4.4094
X10.2756Y-4.5276
X10.2756Y-4.6457
X10.2756Y-4.7638
X10.2756Y-5.2362
X10.2756Y-5.3543
X10.2756Y-5.4724
X10.2882Y-3.2736
X10.2882Y-3.9626
X10.2953Y-3.0118
X10.2953Y-3.0906
X10.2953Y-3.1701
T3
X6.6969Y-5.6299
X6.7046Y-2.2519
X6.7245Y-5.5631
X6.7245Y-5.6967
X6.7323Y-2.185
X6.7323Y-2.3187
X6.7913Y-5.5354
X6.7913Y-5.7244
X6.7991Y-2.1574
X6.7991Y-2.3463
X6.8582Y-5.5631
X6.8582Y-5.6967
X6.8659Y-2.185
X6.8659Y-2.3187
X6.8858Y-5.6299
X6.8936Y-2.2519
X10.0749Y-2.2519
X10.0749Y-5.6299
X10.1026Y-2.185
X10.1026Y-2.3187
X10.1026Y-5.5631
X10.1026Y-5.6967
X10.1694Y-2.1574
X10.1694Y-2.3463
X10.1694Y-5.5354
X10.1694Y-5.7244
X10.2362Y-2.185
X10.2362Y-2.3187
X10.2362Y-5.5631
X10.2362Y-5.6967
X10.2639Y-2.2519
X10.2639Y-5.6299
T5
X9.1787Y-4.9846
X9.1787Y-5.0846
X9.1787Y-5.1846
X9.1787Y-5.2846
X9.1787Y-5.3846
X9.1787Y-5.4846
X9.1787Y-5.5846
X9.1787Y-5.6846
X9.3276Y-4.9756
X9.3276Y-5.2756
X9.4276Y-4.9756
X9.4276Y-5.2756
X9.5276Y-4.9756
X9.5276Y-5.2756
X9.6787Y-4.9846
X9.6787Y-5.0846
X9.6787Y-5.1846
X9.6787Y-5.2846
X9.6787Y-5.3846
X9.6787Y-5.4846
X9.6787Y-5.5846
X9.6787Y-5.6846
T6
X8.2087Y-3.5787
X8.2087Y-3.878
X8.2087Y-4.1732
X8.2087Y-4.4685
X8.3071Y-3.5787
X8.3071Y-3.878
X8.3071Y-4.1732
X8.3071Y-4.4685
X8.4055Y-3.5787
X8.4055Y-3.878
X8.4055Y-4.1732
X8.4055Y-4.4685
X8.4252Y-2.7953
X8.4252Y-3.0709
X8.5236Y-2.7953
X8.5236Y-3.0709
X8.622Y-2.7953
X8.622Y-3.0709
X8.6575Y-4.4646
X8.6614Y-3.5827
X8.6614Y-3.874
X8.6614Y-4.1732
X8.7205Y-2.7953
X8.7205Y-3.0709
X8.7559Y-4.4646
X8.7598Y-3.5827
X8.7598Y-3.874
X8.7598Y-4.1732
X8.8543Y-4.4646
X8.8583Y-3.5827
X8.8583Y-3.874
X8.8583Y-4.1732
X8.9567Y-3.5827
X8.9567Y-3.874
X9.1043Y-4.1732
X9.1078Y-4.4646
X9.2028Y-4.1732
X9.2063Y-4.4646
X9.3012Y-4.1732
X9.3047Y-4.4646
X9.5423Y-2.5787
X9.5423Y-2.6772
X9.5423Y-2.7756
X9.8494Y-2.5787
X9.8494Y-2.6772
X9.8494Y-2.7756
X9.8559Y-5.1815
X9.8559Y-5.2799
X9.8559Y-5.3783
X9.8559Y-5.4768
X9.9409Y-4.1535
X10.0394Y-4.1535
X10.1378Y-4.1535
X10.1565Y-2.5787
X10.1565Y-2.6772
X10.1565Y-2.7756
X10.2362Y-4.1535
T7
X7.7972Y-3.4823
X7.7972Y-3.9547
X7.7972Y-4.1496
X7.7972Y-4.622
X7.7972Y-4.8169
X7.7972Y-5.2894
X7.7992Y-2.8307
X7.7992Y-3.3031
X8.1485Y-2.3453
X8.2485Y-2.3453
X8.3205Y-3.3693
X8.3485Y-2.3453
X8.4205Y-3.3693
X8.5205Y-3.3693
X8.6205Y-3.3693
X8.6315Y-2.3453
X8.7205Y-3.3693
X8.7315Y-2.3453
X8.8205Y-3.3693
X8.8315Y-2.3453
X8.9205Y-3.3693
X8.937Y-2.2441
X8.937Y-2.3425
X9.0205Y-3.3693
X9.1135Y-2.3453
X9.2135Y-2.3453
X9.3135Y-2.3453
T8
X7.8681Y-5.6506
X7.9681Y-5.6506
X8.1437Y-5.6506
X8.2437Y-5.6506
X8.4209Y-5.6506
X8.5209Y-5.6506
X8.6949Y-5.6506
X8.7949Y-5.6506
T9
X7.315Y-3.9567
X7.315Y-4.624
X7.315Y-5.2913
X7.3169Y-3.3051
X7.3169Y-3.4823
X7.3169Y-4.1496
X7.3169Y-4.8169
X7.3189Y-2.8307
X7.874Y-3.7205
X7.874Y-4.3878
X7.874Y-5.0551
X7.876Y-3.0689
T10
X7.0472Y-2.8839
X7.0472Y-3.1004
X7.0472Y-3.5335
X7.0472Y-3.75
X7.0472Y-4.2028
X7.0472Y-4.4193
X7.0472Y-4.872
X7.0472Y-5.0886
X7.1752Y-2.5
X7.3917Y-2.5
X7.687Y-2.5
X7.9035Y-2.5
T11
X6.7913Y-5.6299
X6.7991Y-2.2519
X10.1694Y-2.2519
X10.1694Y-5.6299
T4
G00X10.05Y-4.3646
M15
G01X10.0933Y-4.3646
M16
G05
G00X10.05Y-4.7047
M15
G01X10.0933Y-4.7047
M16
G05
G00X10.2244Y-4.3646
M15
G01X10.248Y-4.3646
M16
G05
G00X10.2244Y-4.7047
M15
G01X10.248Y-4.7047
M16
G05
M30
